<svg width="100" height="125" viewBox="0 0 100 125" fill="none" xmlns="http://www.w3.org/2000/svg">
<path d="M63 64.2891H37C36.4478 64.2891 36 64.7363 36 65.2891V70.9453H11C10.4478 70.9453 10 71.3926 10 71.9453V89C10 89.5527 10.4478 90 11 90H89C89.5522 90 90 89.5527 90 89V74.459C90 73.9062 89.5522 73.459 89 73.459H64V65.2891C64 64.7363 63.5522 64.2891 63 64.2891ZM12 72.9453H36V88H12V72.9453ZM38 71.9453V66.2891H62V74.459V88H38V71.9453ZM88 75.459V88H64V75.459H88Z" fill="white"/>
<path d="M74.9736 32.2793C72.6431 32.2793 70.4434 32.8274 68.4723 33.7773L63.5771 13.585H72.9437C73.0275 13.6077 73.1093 13.6367 73.2002 13.6367C75.6133 13.6367 77.5767 15.5996 77.5767 18.0127C77.5767 20.4258 75.6133 22.3896 73.2002 22.3896C72.6479 22.3896 72.2002 22.8369 72.2002 23.3896C72.2002 23.9424 72.6479 24.3896 73.2002 24.3896C76.7163 24.3896 79.5767 21.5293 79.5767 18.0127C79.5767 14.5958 76.8726 11.806 73.4927 11.6516C73.3882 11.6146 73.2797 11.585 73.1626 11.585H62.3057C61.999 11.585 61.7095 11.7256 61.5195 11.9668C61.3301 12.208 61.2617 12.5225 61.334 12.8203L63.6539 22.3896H39.4492L36.2008 12H40.7466C41.2988 12 41.7466 11.5527 41.7466 11C41.7466 10.4473 41.2988 10 40.7466 10H29.3145C28.7622 10 28.3145 10.4473 28.3145 11C28.3145 11.5527 28.7622 12 29.3145 12H34.1047L37.6844 23.4489L31.6458 33.8344C29.6451 32.8484 27.4035 32.2793 25.0264 32.2793C16.7305 32.2793 9.98145 39.0283 9.98145 47.3242C9.98145 55.6201 16.7305 62.3701 25.0264 62.3701C32.2435 62.3701 38.2847 57.2595 39.7352 50.4687L42.5956 50.8815C42.7313 53.3145 44.735 55.2578 47.2017 55.2578C49.7554 55.2578 51.833 53.1797 51.833 50.626C51.833 49.4863 51.4034 48.455 50.7182 47.6472L65.2527 28.9841L66.6615 34.7951C62.6077 37.4933 59.9282 42.1 59.9282 47.3242C59.9282 55.6201 66.6777 62.3701 74.9736 62.3701C83.2695 62.3701 90.0186 55.6201 90.0186 47.3242C90.0186 39.0283 83.2695 32.2793 74.9736 32.2793ZM25.0264 60.3701C17.8335 60.3701 11.9814 54.5176 11.9814 47.3242C11.9814 40.1309 17.8335 34.2793 25.0264 34.2793C27.0374 34.2793 28.936 34.7501 30.6388 35.5663L26.3092 43.0126C25.8998 42.8904 25.475 42.8047 25.0264 42.8047C22.5342 42.8047 20.5063 44.832 20.5063 47.3242C20.5063 49.8164 22.5342 51.8447 25.0264 51.8447C26.9433 51.8447 28.575 50.6404 29.2313 48.9528L37.7461 50.1816C36.4385 56.0037 31.2368 60.3701 25.0264 60.3701ZM38.0269 48.2004L29.5112 46.9714C29.4181 45.7916 28.881 44.7432 28.0535 43.9913L32.3765 36.5563C35.8112 38.9082 38.0713 42.856 38.0713 47.3242C38.0713 47.6199 38.0463 47.9095 38.0269 48.2004ZM27.5469 47.3242C27.5469 48.7139 26.416 49.8447 25.0264 49.8447C23.6367 49.8447 22.5063 48.7139 22.5063 47.3242C22.5063 45.9346 23.6367 44.8047 25.0264 44.8047C26.416 44.8047 27.5469 45.9346 27.5469 47.3242ZM33.3843 34.8231L38.4933 26.0362L44.9277 46.6156C44.0221 47.1313 43.3022 47.9293 42.9095 48.905L40.0124 48.4869C40.0421 48.1019 40.0713 47.7167 40.0713 47.3242C40.0713 42.1192 37.413 37.5253 33.3843 34.8231ZM47.2017 53.2578C45.7505 53.2578 44.5698 52.0771 44.5698 50.626C44.5698 49.1748 45.7505 47.9941 47.2017 47.9941C48.6528 47.9941 49.833 49.1748 49.833 50.626C49.833 52.0771 48.6528 53.2578 47.2017 53.2578ZM49.132 46.429C48.5425 46.1565 47.8926 45.9941 47.2017 45.9941C47.0781 45.9941 46.962 46.0211 46.8409 46.0306L40.0746 24.3896H64.1388L64.6509 26.5019L49.132 46.429ZM74.9736 60.3701C67.7803 60.3701 61.9282 54.5176 61.9282 47.3242C61.9282 43.0585 63.9954 39.2765 67.1705 36.8949L67.6729 38.9668C67.7041 39.0957 67.7607 39.2178 67.8394 39.3242L71.5673 44.3858C70.8826 45.1782 70.4531 46.1973 70.4531 47.3242C70.4531 49.8164 72.481 51.8447 74.9736 51.8447C77.4658 51.8447 79.4937 49.8164 79.4937 47.3242C79.4937 44.832 77.4658 42.8047 74.9736 42.8047C74.3309 42.8047 73.7216 42.9437 73.1675 43.1865L69.5688 38.3008L68.9536 35.7629C70.7567 34.8203 72.8019 34.2793 74.9736 34.2793C82.1665 34.2793 88.0186 40.1309 88.0186 47.3242C88.0186 54.5176 82.1665 60.3701 74.9736 60.3701ZM74.9736 44.8047C76.3633 44.8047 77.4937 45.9346 77.4937 47.3242C77.4937 48.7139 76.3633 49.8447 74.9736 49.8447C73.584 49.8447 72.4531 48.7139 72.4531 47.3242C72.4531 45.9346 73.584 44.8047 74.9736 44.8047Z" fill="white"/>
</svg>
