<svg width="110" height="135" viewBox="0 0 110 135" fill="none" xmlns="http://www.w3.org/2000/svg">
<path d="M79.7624 63.5C75.8835 60.7188 70.864 61.0117 67.2314 62.5507C65.9502 55.9413 60.1533 52.9023 54.9504 52.9023C49.7512 52.9023 44.0284 55.9335 42.7514 62.5507C39.142 61.0116 34.103 60.7226 30.2314 63.5C26.9814 65.8398 23.6298 71.0195 25.5517 82.5H27.7626C25.8915 71.859 28.7236 67.262 31.4931 65.27C34.7548 62.9302 39.3525 63.27 42.4931 64.8207C41.8642 74.3012 44.3134 76.3327 45.8642 76.6917C47.333 77.0316 48.7939 76.0433 49.5126 74.2229C50.7235 71.1721 49.6923 66.7815 44.7743 63.6449C45.5556 57.7465 50.3759 55.0863 54.9463 55.0863C59.5166 55.0863 64.4151 57.766 65.2083 63.6449C60.2864 66.7855 59.2591 71.1761 60.47 74.2229C61.1888 76.0432 62.6497 77.0315 64.1184 76.6917C65.6575 76.3324 68.1184 74.3011 67.4895 64.8207C70.6301 63.2699 75.2278 62.9301 78.4895 65.27C81.2707 67.2583 84.0911 71.8716 82.22 82.5H84.4309C86.3528 71.02 83.0012 65.84 79.7512 63.5H79.7624ZM47.5124 73.4219C47.1921 74.2305 46.6843 74.6524 46.3718 74.5821C45.7937 74.4414 44.3601 72.5821 44.6101 66.1602C48.0593 68.8321 48.1218 71.8985 47.5085 73.4297L47.5124 73.4219ZM63.6294 74.5703C63.3209 74.6406 62.8091 74.2304 62.4888 73.4101C61.8795 71.8789 61.9381 68.8085 65.3872 66.1406C65.6372 72.5625 64.2075 74.4297 63.6255 74.5625L63.6294 74.5703Z" fill="white"/>
<path d="M62.0703 44.5701C62.0703 40.6717 58.8984 37.4998 55 37.4998C51.1016 37.4998 47.9297 40.6717 47.9297 44.5701C47.9297 48.4685 51.1016 51.6404 55 51.6404C58.8984 51.6404 62.0703 48.4685 62.0703 44.5701ZM50.1013 44.5701C50.1013 41.8709 52.3005 39.6717 54.9997 39.6717C57.6989 39.6717 59.8981 41.8709 59.8981 44.5701C59.8981 47.2693 57.6989 49.4803 54.9997 49.4803C52.3005 49.4803 50.1013 47.2694 50.1013 44.5701Z" fill="white"/>
<path d="M40.7705 52.191C40.7705 48.2926 37.5986 45.1207 33.7002 45.1207C29.8018 45.1207 26.6299 48.2926 26.6299 52.191C26.6299 56.0894 29.8018 59.2613 33.7002 59.2613C37.5986 59.2613 40.7705 56.0894 40.7705 52.191ZM28.7905 52.191C28.7905 49.4801 30.9897 47.2926 33.6889 47.2926C36.3881 47.2926 38.5873 49.4918 38.5873 52.191C38.5873 54.8902 36.3881 57.0894 33.6889 57.0894C30.9897 57.0894 28.7905 54.8902 28.7905 52.191Z" fill="white"/>
<path d="M83.3711 52.191C83.3711 48.2926 80.1992 45.1207 76.3008 45.1207C72.4024 45.1207 69.2305 48.2926 69.2305 52.191C69.2305 56.0894 72.4024 59.2613 76.3008 59.2613C80.1992 59.2613 83.3711 56.0894 83.3711 52.191ZM71.3981 52.191C71.3981 49.4801 73.5973 47.2926 76.2965 47.2926C78.9957 47.2926 81.1949 49.4918 81.1949 52.191C81.1949 54.8902 78.9957 57.0894 76.2965 57.0894C73.5973 57.0894 71.3981 54.8902 71.3981 52.191Z" fill="white"/>
</svg>
