<svg width="110" height="135" viewBox="0 0 110 135" fill="none" xmlns="http://www.w3.org/2000/svg">
<path fill-rule="evenodd" clip-rule="evenodd" d="M91.8519 62.672C91.1801 62.672 90.5238 62.7501 89.891 62.8908L89.4106 61.172C89.5004 61.3009 89.641 61.3907 89.809 61.3907C90.8285 61.3907 91.6098 61.0626 92.1488 60.7423C93.1097 61.0626 94.1996 60.6524 94.6879 59.7306L94.809 59.5118C95.3481 58.4806 94.9496 57.2032 93.9184 56.6524L87.1372 53.0626C86.688 51.1915 85.5786 46.711 84.977 44.5938C85.3285 44.6954 85.6879 44.7423 86.0551 44.7423C88.266 44.7423 90.0668 42.9611 90.1059 40.7618C90.1645 40.75 90.2152 40.7305 90.2777 40.7032C90.4067 40.625 90.4887 40.4922 90.5082 40.3438C90.6996 38.9727 90.4184 37.7422 89.6879 36.7852C88.9574 35.8243 87.809 35.1836 86.4496 35.004C83.9496 34.6642 81.3988 36.9024 81.0004 39.8048C80.9496 40.1759 81.0903 40.4142 81.2113 40.5431C81.4106 40.754 81.6918 40.8439 82.0004 40.8634C82.0004 41.0235 82.0317 41.1837 82.0512 41.3321C80.891 41.0118 79.6098 41.2735 78.6723 42.1017L69.7426 49.9415C69.0317 50.5626 68.602 51.422 68.5238 52.3712V52.3907V52.4102V52.4805C68.4925 52.7813 68.5043 53.0821 68.5824 53.3712V53.4024L68.1214 53.3633C67.9418 53.3438 67.7621 53.4337 67.6605 53.5938C67.5589 53.7423 67.5511 53.9454 67.641 54.1055L68.2113 55.1641C68.3011 55.3243 68.473 55.4259 68.6527 55.4259H68.6918L69.4105 55.3673L71.0121 58.9767L73.1215 65.7853L72.2817 66.297C71.4223 65.0665 70.2934 64.0587 68.9731 63.3361C69.352 62.3556 68.9535 61.215 67.9926 60.7072L61.2114 57.1056C60.7505 55.2462 59.6528 50.754 59.0395 48.6368C59.3911 48.7266 59.7504 48.7852 60.1176 48.7852C62.3364 48.7852 64.1371 47.004 64.1762 44.8047C64.2348 44.793 64.2856 44.7735 64.3364 44.7461C64.4653 44.668 64.5473 44.5352 64.5668 44.3867C64.7582 43.0156 64.477 41.7851 63.7465 40.8281C63.016 39.8672 61.8676 39.2265 60.516 39.0469C59.266 38.8673 57.9848 39.3282 56.9262 40.3164C55.9262 41.2383 55.2543 42.5273 55.0746 43.8476C55.0238 44.2187 55.1645 44.457 55.2856 44.5859C55.4848 44.8047 55.7738 44.8867 56.0746 44.914C56.0746 45.0742 56.1059 45.2344 56.1254 45.3828C54.9652 45.0625 53.684 45.3242 52.7348 46.1523L43.8051 53.9921C43.6645 54.1132 43.5356 54.2538 43.4145 54.3906L40.8637 53.039C40.4027 51.1796 39.3051 46.6874 38.7035 44.5702C39.055 44.6717 39.4222 44.7186 39.7816 44.7186C41.9925 44.7186 43.7933 42.9374 43.8324 40.7381C43.891 40.7264 43.9417 40.7069 44.0042 40.6795C44.1332 40.6014 44.2152 40.4686 44.2347 40.3201C44.4261 38.949 44.1449 37.7185 43.4144 36.7615C42.6839 35.8006 41.5355 35.1599 40.1839 34.9803C37.6839 34.6405 35.1331 36.8787 34.7347 39.7811C34.6839 40.1522 34.8246 40.3905 34.9456 40.5194C35.1449 40.7304 35.4261 40.8202 35.7347 40.8475C35.7347 41.0077 35.766 41.1678 35.7855 41.328C34.6253 40.9999 33.3441 41.2694 32.3949 42.0897L23.4652 49.9295C22.7464 50.5701 22.3168 51.4412 22.2464 52.3514V52.371V52.3905C22.2347 52.4608 22.2347 52.5389 22.2347 52.6717C22.2347 52.8319 22.2347 52.9803 22.2659 53.1327V53.1444C22.2776 53.2225 22.2854 53.2928 22.305 53.3749C22.305 53.3866 22.305 53.3944 22.3167 53.4139L21.8558 53.3749C21.6761 53.3553 21.4964 53.4452 21.3948 53.6053C21.2933 53.7538 21.2854 53.9569 21.3753 54.1171L21.9456 55.1757C22.0354 55.3358 22.2073 55.4374 22.387 55.4374H22.4261L23.1448 55.3788L24.7464 58.9999L26.8558 65.8007L26.016 66.3124C24.2152 63.7226 21.3051 62.1718 18.1176 62.1718C15.3793 62.1718 12.7582 63.3437 10.9262 65.3827C9.07458 67.453 8.21528 70.1327 8.52778 72.9139C9.02778 77.4139 12.6684 80.992 17.1762 81.4256C17.4848 81.4568 17.7973 81.4647 18.1059 81.4647C21.184 81.4647 24.0356 80.0038 25.8559 77.535C26.0941 77.7459 26.3676 77.9139 26.6566 78.0232V78.9022H29.1878V77.9022H29.0863C29.2152 77.824 29.348 77.7303 29.4652 77.6209C30.2152 81.5506 33.5238 84.6092 37.555 84.992C37.8558 85.0233 38.1448 85.0311 38.4456 85.0311C41.3948 85.0311 44.0042 83.6327 45.6644 81.4725H46.0433C46.3129 81.7615 46.6332 81.9842 46.9925 82.1014V82.9725H49.5238V81.9725H49.3831C49.805 81.7225 50.1331 81.3631 50.3519 80.9139C51.93 80.6951 53.1331 79.3631 53.1722 77.742C54.0511 76.6131 54.6527 75.3201 54.9613 73.9529C55.223 75.1248 55.7113 76.2537 56.4105 77.2537C56.6019 77.5349 56.8089 77.7927 57.0199 78.0544C57.9886 82.0661 61.5901 85.0427 65.8988 85.0427C69.8988 85.0427 73.2776 82.4725 74.5276 78.9138H75.4495V77.9138H75.3206C75.7503 77.6638 76.0823 77.2928 76.2816 76.8552C77.8832 76.6248 79.1019 75.2654 79.1019 73.6169C79.1019 73.0154 78.9417 72.4567 78.6409 71.9567L88.3714 61.2967L88.891 63.1756C85.2699 64.3944 82.6605 67.8045 82.6605 71.8358C82.6605 76.8866 86.7621 80.9842 91.8089 80.9842C96.8596 80.9842 100.957 76.8826 100.957 71.8358C100.957 66.785 96.8557 62.6874 91.8089 62.6874L91.8519 62.672ZM86.0902 57.5704C86.0902 57.629 86.0707 57.6993 86.0512 57.7892C86.0199 57.9376 85.973 58.0782 85.9301 58.1681C85.9184 58.1876 85.8715 58.2696 85.8598 58.2892C85.7816 58.4689 85.6605 58.6173 85.4496 58.8204L81.2308 58.8595L81.2699 58.8087C81.3714 58.6798 81.4105 58.5079 81.3597 58.3595C81.3206 58.1993 81.1995 58.0782 81.0394 58.0314L75.4613 56.1095L75.2113 55.5509L77.6332 53.4298L83.184 55.34L83.2348 55.4689C83.266 55.5587 83.3129 55.6408 83.4067 55.7892C83.6059 56.1407 83.8949 56.4298 84.2465 56.6173L86.0746 57.5861L86.0902 57.5704ZM78.5121 52.6407L81.7504 49.7891L82.8715 54.1407L78.5121 52.6407ZM80.059 58.7305L79.9497 58.8594H76.6997L76.0278 57.3399L80.059 58.7305ZM79.1411 59.8594L77.852 61.4375L77.1527 59.8594H79.1411ZM79.4887 66.1289C79.52 65.9492 79.52 65.7695 79.5083 65.5977C79.5083 65.5586 79.5083 65.5274 79.4965 65.4883C79.477 65.3086 79.4458 65.1367 79.3872 64.9766C79.3559 64.8672 79.3168 64.7578 79.2778 64.6563L78.2973 62.4571L80.4262 59.8477H84.6176L79.477 66.1485V66.1172L79.4887 66.1289ZM86.8012 58.6719C86.9106 58.4532 86.9809 58.2422 87.0122 58.0625L87.602 58.3711L87.7309 58.8399H86.6918C86.7231 58.7813 86.7621 58.7305 86.7934 58.668L86.8012 58.6719ZM89.3285 60.8516L88.8168 59.0118L91.0277 60.1837C90.6879 60.3048 90.2894 60.3947 89.8285 60.3947C89.5668 60.3947 89.3597 60.5939 89.3402 60.8556L89.3285 60.8516ZM86.0707 43.7386C85.5317 43.7386 85.0121 43.598 84.5512 43.3402C84.4418 43.1605 84.3207 42.9808 84.1723 42.8206L83.8442 42.4496C83.7426 42.3285 83.6332 42.2308 83.5239 42.1292C83.4536 42.0707 83.395 42.0199 83.3247 41.9691C83.3051 41.9574 83.2856 41.9378 83.2739 41.93C83.1254 41.5785 83.0356 41.2113 83.0122 40.8284C83.0512 40.8284 83.102 40.8167 83.1411 40.8089C83.4106 40.7776 83.6997 40.7386 84.0122 40.6878C84.2036 40.6566 84.4028 40.6292 84.602 40.598H84.6332C84.8247 40.5667 85.0239 40.5472 85.2231 40.5198C85.2739 40.5198 85.3246 40.5081 85.3832 40.5003C85.5434 40.4808 85.7114 40.4612 85.8715 40.4495C85.9418 40.4495 86.02 40.4378 86.0903 40.43C86.2387 40.4183 86.3911 40.4105 86.5395 40.3987H86.8012H87.2309H87.5122C87.6528 40.3987 87.7934 40.3987 87.934 40.4183C88.0356 40.4183 88.1333 40.4378 88.2231 40.4378C88.352 40.4495 88.4926 40.4691 88.6215 40.4769C88.7231 40.4886 88.8208 40.5081 88.9301 40.5276C89.0004 40.5394 89.059 40.5589 89.1293 40.5667V40.6761C89.1293 42.3675 87.7582 43.7347 86.0707 43.7347L86.0707 43.7386ZM86.3285 35.9886C87.4183 36.1371 88.3285 36.6292 88.8988 37.3792C89.3598 37.9886 89.5902 38.7581 89.5707 39.6292C89.4691 39.598 89.3598 39.5902 89.2504 39.5706C89.1215 39.5394 88.9887 39.5198 88.8598 39.5003C88.7309 39.4808 88.5981 39.4691 88.4692 39.4495C88.3402 39.4378 88.2191 39.4183 88.0902 39.4105C87.9613 39.4105 87.8285 39.3987 87.6996 39.3909C87.5785 39.3909 87.4496 39.3792 87.3285 39.3792H86.9496H86.5785C86.4574 39.3792 86.3481 39.3987 86.2387 39.3987C86.1098 39.3987 85.9692 39.4183 85.8402 39.43C85.7504 39.43 85.6606 39.4495 85.5785 39.4612C85.4301 39.4808 85.2778 39.4925 85.1371 39.512C85.1059 39.512 85.0668 39.512 85.0356 39.5237C84.6137 39.5745 84.227 39.6331 83.8559 39.6839C83.3246 39.762 82.8559 39.8323 82.477 39.8558C82.227 39.8675 82.0785 39.8558 82.0082 39.8558C82.3285 37.7777 84.227 35.7074 86.3168 35.9847L86.3285 35.9886ZM70.4225 50.6996L79.3522 42.8598C80.2624 42.059 81.5905 41.9809 82.5319 42.6098C82.5632 42.6411 82.5827 42.6606 82.6101 42.6801C82.7819 42.7895 82.9499 42.9301 83.0905 43.102L83.4186 43.4731C83.5476 43.6137 83.6491 43.7622 83.7272 43.9223C83.9577 44.4106 85.3756 50.0629 86.2155 53.5121C86.2468 53.6527 86.3366 53.7738 86.4655 53.8324L93.446 57.5238C93.9851 57.8129 94.196 58.4926 93.9148 59.0355L93.7937 59.2543C93.5124 59.7855 92.8445 59.9925 92.2937 59.7152L88.2546 57.5746L84.7038 55.6957C84.5241 55.5941 84.3757 55.4457 84.2155 55.184C84.196 55.1449 84.1765 55.1059 84.1569 55.0629L82.485 48.7348C82.446 48.5629 82.3131 48.434 82.1452 48.3832C81.9733 48.3325 81.7936 48.3715 81.6647 48.4848L74.2663 55.0043C74.1062 55.1449 74.0476 55.3832 74.1374 55.5824L75.8757 59.5121C75.8757 59.5121 75.8874 59.5434 75.8952 59.5512L77.235 62.5707L78.3444 65.059C78.3444 65.059 78.3835 65.1605 78.4147 65.2504C78.5163 65.5394 78.5241 65.8519 78.4343 66.1488L76.9655 71.1605V71.1722L75.5163 76.1331C75.5163 76.1331 75.485 76.2035 75.485 76.223C75.3952 76.5042 75.2233 76.7542 74.9967 76.9339C75.0358 76.5824 75.0671 76.2347 75.0671 75.8753C75.0671 74.0745 74.5358 72.4065 73.6452 70.9847L73.8444 70.2933V70.2621V70.223L75.0827 66.0316C75.1139 65.9222 75.1139 65.7933 75.0631 65.6918L70.1647 54.6408L69.9655 54.2111C69.864 54.0704 69.7858 53.9298 69.7155 53.7697C69.6374 53.5704 69.5749 53.3908 69.5436 53.1916V53.1525C69.5046 52.9337 69.4929 52.7111 69.5124 52.504C69.5632 51.8048 69.8835 51.1759 70.403 50.7149L70.4225 50.6996ZM71.5397 76.6996C69.7702 79.3012 66.7389 80.7582 63.5592 80.4301C61.3873 80.2309 59.399 79.1918 57.9576 77.559C57.8483 77.02 57.7858 76.4574 57.7858 75.8871C57.7858 72.3285 60.0866 69.2973 63.2741 68.1879L64.0241 70.8793C63.653 71.0278 63.3951 71.391 63.3951 71.8207C63.3951 72.3793 63.8561 72.8402 64.4146 72.8402C64.4654 72.8402 64.5162 72.8207 64.5631 72.809L65.2232 75.1684C65.0435 75.3481 64.9225 75.6098 64.9225 75.8871C64.9225 76.4457 65.3834 76.9066 65.942 76.9066C66.5005 76.9066 66.9615 76.4457 66.9615 75.8871C66.9615 75.4184 66.6333 75.0356 66.1919 74.9184L65.5708 72.6801L71.9106 73.4301L71.4419 75.0317V75.0707C71.3911 75.2504 71.3716 75.4418 71.3638 75.6215C71.3638 75.6528 71.3521 75.6801 71.3521 75.7114C71.3521 75.7621 71.3638 75.8207 71.3716 75.8715C71.3716 75.9418 71.3833 76.02 71.3911 76.0903C71.4028 76.1801 71.4224 76.2621 71.4497 76.352C71.4692 76.4301 71.5005 76.5121 71.5278 76.5903C71.5396 76.6293 71.5474 76.6606 71.5591 76.6997L71.5397 76.6996ZM71.989 67.6723C72.3679 68.3637 72.6491 69.1137 72.8288 69.8832C72.2975 69.2738 71.6882 68.723 71.0085 68.2738L71.989 67.6723ZM72.5593 71.1723L72.1804 72.4614L65.4499 71.6724L70.028 68.8716C71.0162 69.4497 71.8796 70.2427 72.5475 71.1802L72.5593 71.1723ZM65.0202 70.7504L64.2311 67.9106C64.7819 67.7895 65.3405 67.7309 65.9225 67.7309C67.0006 67.7309 68.0319 67.9497 68.9733 68.3325L65.0124 70.7544L65.0202 70.7504ZM72.5593 76.5121C72.5593 76.5121 72.5593 76.4926 72.5475 76.4809V76.4692C72.4889 76.3598 72.4382 76.2504 72.3991 76.1293C72.3991 76.0981 72.3874 76.0707 72.3796 76.0395C72.36 75.9496 72.3483 75.8676 72.3405 75.7778V75.6567C72.3405 75.5551 72.36 75.4457 72.3913 75.3364V75.2973L73.2624 72.3481C73.7819 73.4184 74.0827 74.6176 74.0827 75.8872C74.0827 76.3481 74.0319 76.7974 73.9616 77.2388C73.8718 77.2388 73.7702 77.2388 73.6921 77.2076L73.3913 77.1177C73.0514 77.0161 72.7624 76.7974 72.571 76.4966L72.5593 76.5121ZM73.6609 67.4613L73.3991 68.3324C73.239 67.9223 73.0476 67.5316 72.8406 67.1527L73.4499 66.7816L73.6609 67.4613ZM71.45 66.8285L70.0203 67.7074C68.7898 67.0863 67.4109 66.7387 65.9422 66.7387C65.2703 66.7387 64.6141 66.8168 63.9813 66.9574L63.5008 65.2386C63.5906 65.3675 63.7313 65.4574 63.9109 65.4574C64.9226 65.4574 65.7118 65.1293 66.2508 64.8089C66.2898 64.8207 66.3289 64.8402 66.3718 64.848C66.4109 64.8597 66.45 64.8597 66.4812 64.8675C66.5711 64.8871 66.6531 64.8988 66.7429 64.9066H66.8836H67.114C67.1648 64.9066 67.2234 64.8949 67.2742 64.8871C67.3445 64.8754 67.4031 64.8558 67.4734 64.8363C67.532 64.8168 67.5828 64.805 67.6453 64.7855C67.6961 64.766 67.7547 64.7347 67.8055 64.7152C67.864 64.6839 67.9265 64.6644 67.9851 64.6254C67.9969 64.6254 68.0164 64.6058 68.0242 64.5941C68.1726 64.5043 68.3055 64.3949 68.4226 64.2738L68.5125 64.1839C69.6922 64.8246 70.6922 65.7347 71.4617 66.8245L71.45 66.8285ZM52.942 76.3793C52.8912 76.2504 52.8326 76.1176 52.7506 76.0004L53.6021 75.0707C53.4224 75.5199 53.2037 75.9614 52.942 76.3715L52.942 76.3793ZM62.962 63.3013C63.0518 63.2896 63.1417 63.2623 63.2237 63.2505L65.1026 64.2388C64.7627 64.3599 64.3643 64.4498 63.9034 64.4498C63.6417 64.4498 63.4346 64.649 63.4151 64.9107L62.9659 63.2896L62.962 63.3013ZM55.7393 67.5513L54.7393 68.7818C54.3682 67.6724 53.79 66.6334 53.0479 65.7232L54.5088 63.9224H58.6885L58.4072 64.2623C57.2978 65.1412 56.376 66.274 55.7353 67.5435L55.7393 67.5513ZM52.1221 75.2115L52.833 72.8131H53.333C53.6143 72.8014 53.833 72.5748 53.8213 72.3014C53.8213 72.0319 53.5908 71.8131 53.3213 71.8131H53.2197C53.5908 71.653 53.9111 71.403 54.1611 71.0827L54.2119 71.0241C54.2432 71.2936 54.251 71.5631 54.251 71.8248C54.251 72.1959 54.2197 72.5748 54.1611 72.985L52.122 75.2233L52.1221 75.2115ZM51.1807 78.4303L51.7197 76.5709C51.79 76.61 51.8603 76.6295 51.9385 76.6295C52.0596 76.8678 52.1377 77.1295 52.1689 77.4186C51.8603 77.778 51.5283 78.1178 51.1689 78.4303L51.1807 78.4303ZM51.2705 64.0323L51.2197 63.9308H53.208L52.3565 64.9699C52.0049 64.6183 51.6455 64.3097 51.2549 64.0402L51.2705 64.0323ZM61.6805 62.4307L61.7196 62.5596C61.411 62.6495 61.0985 62.751 60.7977 62.8682C60.8289 62.8174 60.8563 62.7784 60.8758 62.7276C60.9852 62.5167 61.0477 62.3174 61.0867 62.1182L61.6766 62.4268L61.6805 62.4307ZM60.1727 61.6299C60.1727 61.6299 60.1532 61.7315 60.1414 61.7784V61.8096V61.8604C60.1219 61.9893 60.0711 62.1299 59.9618 62.3487C59.8836 62.5206 59.7625 62.6768 59.5633 62.8682L55.5516 62.9073H55.3407L55.3797 62.8565C55.4813 62.7276 55.5204 62.5557 55.4696 62.4073C55.4305 62.2471 55.3094 62.126 55.1493 62.0674L49.5712 60.1455L49.3212 59.587L51.7431 57.4659L57.2822 59.3761L57.3408 59.5245C57.372 59.6026 57.4111 59.6729 57.4814 59.8057C57.4814 59.8175 57.5009 59.837 57.5204 59.8565C57.7197 60.2081 58.0087 60.4854 58.3486 60.6573L60.1767 61.6261L60.1727 61.6299ZM52.5907 56.7119L55.8212 53.8721L56.9423 58.2119L52.5907 56.7119ZM54.1415 62.79L54.0321 62.919H50.7821L50.1024 61.3995L54.1336 62.7901L54.1415 62.79ZM52.3798 66.54L52.411 66.5088C53.1493 67.458 53.6805 68.5479 53.9813 69.7197L53.5712 70.2197V70.1884C53.6024 70.0166 53.6024 69.8486 53.5907 69.6767C53.5907 69.6377 53.5907 69.5986 53.579 69.5673C53.5595 69.3955 53.5282 69.2275 53.4774 69.0791C53.4462 68.9384 53.3993 68.8095 53.3563 68.7509L52.3759 66.5517L52.3798 66.54ZM56.5907 68.0791L59.1219 64.9697C59.6805 64.5401 60.2821 64.1807 60.911 63.9111H62.0907L62.1688 64.2119L55.7782 71.2119C55.8485 70.1338 56.1298 69.0713 56.5868 68.0908L56.5907 68.0791ZM60.1415 47.8021C59.6024 47.8021 59.0712 47.6615 58.622 47.4037C58.5907 47.3451 58.5517 47.2943 58.5204 47.2435C58.5009 47.2123 58.4814 47.1732 58.4618 47.142C58.3915 47.0404 58.3212 46.9506 58.2509 46.8725L57.9228 46.4935C57.7509 46.3021 57.5712 46.1537 57.4033 46.0248C57.3837 46.0131 57.372 45.9935 57.3525 45.974C57.204 45.6225 57.1142 45.2631 57.1025 44.8842C57.4033 44.8452 57.7314 44.8061 58.0907 44.7436C58.579 44.6733 59.1219 44.5952 59.7001 44.5327C59.7705 44.5327 59.8486 44.5131 59.9189 44.5131C60.0283 44.5014 60.1376 44.4936 60.247 44.4819C60.3681 44.4819 60.497 44.4623 60.6181 44.4506C60.708 44.4506 60.7978 44.4506 60.8798 44.4389C61.0283 44.4389 61.1806 44.4389 61.329 44.4272H61.5595C61.7197 44.4272 61.8798 44.4272 62.04 44.4467C62.1103 44.4467 62.1884 44.4584 62.2587 44.4662C62.4189 44.478 62.579 44.4975 62.7392 44.517C62.8173 44.5287 62.8876 44.5366 62.9697 44.5561C63.0478 44.5678 63.1298 44.5873 63.2197 44.6069V44.7163C63.2197 46.4077 61.8408 47.7749 60.1494 47.7749L60.1415 47.8021ZM57.6298 41.0716C58.4696 40.2904 59.4579 39.931 60.411 40.0599C61.5008 40.2084 62.411 40.7006 62.9813 41.4505C63.4422 42.0599 63.6727 42.8294 63.6532 43.7005C63.5946 43.6888 63.5321 43.681 63.4735 43.6615C63.2938 43.6224 63.1141 43.5834 62.9344 43.5599C62.8446 43.5482 62.743 43.5404 62.6532 43.5287C62.493 43.5091 62.3329 43.4896 62.1844 43.4779C62.0633 43.4779 61.9461 43.4662 61.825 43.4662C61.6961 43.4662 61.5555 43.4545 61.4266 43.4545H60.9657H60.6844C60.4539 43.4662 60.2352 43.4857 60.0047 43.5052H59.9539C59.2235 43.5638 58.5437 43.6654 57.9422 43.7552C57.411 43.8334 56.9422 43.9037 56.5711 43.9271C56.3211 43.9466 56.1727 43.9271 56.0907 43.9271C56.2626 42.8568 56.8094 41.8177 57.6219 41.0677L57.6298 41.0716ZM30.8918 59.8606H32.8918L31.6027 61.4387L30.9035 59.8606H30.8918ZM41.3528 58.3723L41.4817 58.8411H40.4426C40.4739 58.7825 40.5129 58.7317 40.5442 58.6692C40.6535 58.4505 40.7239 58.2395 40.7551 58.0598L41.3449 58.3684L41.3528 58.3723ZM47.22 69.8603L45.9505 70.6416C45.8606 70.5205 45.7786 70.3916 45.6888 70.2822L43.7786 63.3838C44.2395 63.2823 44.7005 63.2119 45.1497 63.1924L47.22 69.8721L47.22 69.8603ZM39.5325 75.7314L44.8411 72.4931C45.0325 72.7041 45.2903 72.8447 45.5911 72.8447C45.7317 72.8447 45.8606 72.8135 45.9817 72.7666C46.1731 73.2158 46.3333 73.665 46.4309 74.1572L45.7512 76.4775L39.5324 75.747L39.5325 75.7314ZM44.2395 68.7822C42.7004 67.5205 40.7395 66.7705 38.6106 66.7431C39.6692 65.2939 41.1418 64.204 42.8098 63.6337L44.2395 68.7822ZM31.3995 53.4112L36.9386 55.3214L36.9894 55.4425V55.4621C36.9894 55.4621 37.0402 55.5636 37.0675 55.6222C37.0675 55.6418 37.0792 55.6535 37.087 55.673L37.1456 55.7746C37.1456 55.7746 37.1652 55.8058 37.1769 55.8136C37.2472 55.9347 37.337 56.0324 37.4152 56.1339C37.4542 56.173 37.4737 56.2355 37.5245 56.2746C37.6652 56.4152 37.8253 56.5363 38.005 56.6261L39.8331 57.5949C39.8331 57.6535 39.8136 57.7238 39.794 57.8136C39.7628 57.9621 39.7159 58.1027 39.673 58.1925C39.6612 58.2121 39.6144 58.2941 39.6026 58.3136C39.5245 58.4855 39.4034 58.6417 39.1925 58.8449L34.9737 58.8839L35.0127 58.8332C35.1143 58.7043 35.1534 58.5324 35.1026 58.3839C35.0635 58.2238 34.9424 58.1027 34.7823 58.0558L29.2042 56.1339L28.9542 55.5753L30.005 54.6535L31.3761 53.4543L31.3995 53.4112ZM32.2511 52.6417L35.4816 49.7901L36.6027 54.1417L32.2511 52.6417ZM33.8019 58.7315L33.6925 58.8604H30.4425L29.7706 57.3409L33.8019 58.7315ZM32.0519 62.4698L34.1808 59.8604H38.3722L33.2433 66.1612C33.2628 66.0518 33.2433 65.9503 33.255 65.8526C33.255 65.7823 33.2667 65.7042 33.255 65.6339C33.255 65.4542 33.2159 65.2745 33.1651 65.1026C33.1534 65.0714 33.1651 65.0323 33.1456 64.9933C33.1143 64.8722 33.0753 64.7628 33.0245 64.6729L32.6729 63.8839L32.044 62.4737L32.0519 62.4698ZM32.5011 68.7393H32.7901C32.6612 68.8409 32.5284 68.9581 32.3995 69.0674L32.5011 68.7393ZM31.3409 72.6729L31.3917 72.501C31.462 72.5401 31.5323 72.5596 31.6104 72.5596C31.7706 72.8799 31.8799 73.2198 31.8799 73.5908C31.8799 74.5518 31.2901 75.3799 30.4385 75.7197L31.337 72.6689L31.3409 72.6729ZM32.3995 70.4502C32.4503 70.3916 32.5206 70.3408 32.5713 70.2901L32.2432 70.6494C32.294 70.5908 32.3448 70.5205 32.4034 70.458L32.3995 70.4502ZM33.4815 68.2393V68.2276C33.4815 67.9581 33.251 67.7393 32.9815 67.7393H32.8799C33.251 67.5792 33.5713 67.3292 33.8213 67.0088L39.6494 59.8369H41.7392L41.8173 60.1377L35.2392 67.3369C34.6103 67.5752 34.0204 67.876 33.458 68.2354L33.4815 68.2393ZM42.1495 61.2823L42.5401 62.6807C40.5284 63.3526 38.7706 64.6807 37.5713 66.4815C37.501 66.5909 37.4424 66.712 37.3721 66.8331C37.2705 66.8448 37.1611 66.8526 37.0635 66.8721L42.1533 61.294L42.1495 61.2823ZM37.9815 67.7511H38.0401H38.419H38.4776C40.6495 67.7511 42.6885 68.591 44.2081 70.1222C44.4073 70.3214 44.5987 70.5324 44.7667 70.7511L44.8682 71.1105C44.7784 71.2003 44.6963 71.3097 44.6495 71.4308L38.8683 74.962C38.7472 74.9112 38.6065 74.8722 38.4698 74.8722C38.1417 74.8722 37.8605 75.0441 37.6691 75.2823C37.1886 74.1925 36.9386 73.0323 36.9386 71.8214C36.9386 70.38 37.3097 69.0011 37.9698 67.7511L37.9815 67.7511ZM39.0792 76.6808L45.4698 77.4308L45.0284 78.9308C44.8877 79.4191 44.8799 79.9308 44.9893 80.4191C42.4307 80.2394 40.1104 78.9503 38.5987 76.8683C38.7784 76.8488 38.9385 76.7785 39.0792 76.6769L39.0792 76.6808ZM47.2198 73.2511C47.0596 72.7003 46.8604 72.1808 46.5987 71.6808V71.6691V71.6496C46.587 71.5793 46.5792 71.5089 46.5596 71.4386L47.5401 70.8371L47.751 71.5089L47.2393 73.2394L47.2198 73.2511ZM43.5128 62.4231L43.1729 61.1848C43.2628 61.3059 43.4034 61.3958 43.5714 61.3958C43.8331 61.3958 44.0909 61.3645 44.3409 61.3254L44.7393 62.2356C44.3292 62.2747 43.919 62.3372 43.5088 62.427L43.5128 62.4231ZM43.5597 60.3919C43.2979 60.3919 43.0909 60.5911 43.0714 60.8411L42.6925 59.4817C42.6925 59.4817 42.7237 59.4935 42.7432 59.4935H42.7823L43.3839 59.4427L43.5323 59.5208L43.9034 60.3606C43.7823 60.3724 43.6729 60.3802 43.5518 60.3802L43.5597 60.3919ZM39.8096 43.7399C39.2706 43.7399 38.751 43.5993 38.2901 43.3415C38.1808 43.1618 38.0597 42.9821 37.9112 42.8219L37.8019 42.7009L37.5831 42.4391C37.5831 42.4391 37.544 42.4079 37.5245 42.3884C37.3526 42.1969 37.1651 42.0368 37.0128 41.9391C36.8644 41.5876 36.7745 41.2204 36.7511 40.8375C36.7901 40.8375 36.8409 40.8258 36.8722 40.818C37.1417 40.7868 37.4308 40.7477 37.7511 40.6969C37.9425 40.6657 38.13 40.6383 38.3409 40.6071H38.4112C38.5909 40.5875 38.7706 40.5563 38.962 40.5368C39.0206 40.5368 39.0831 40.525 39.1339 40.5172C39.294 40.4977 39.4425 40.4782 39.6143 40.4664C39.6925 40.4664 39.7628 40.4547 39.8448 40.4469C39.9933 40.4352 40.1456 40.4274 40.294 40.4157H40.5558H40.9854H41.2667C41.4073 40.4157 41.548 40.4157 41.6886 40.4352C41.7901 40.4352 41.8878 40.4547 41.9776 40.4547C42.1065 40.4664 42.2394 40.486 42.3761 40.4938C42.4776 40.5055 42.587 40.525 42.6847 40.5446C42.755 40.5563 42.8136 40.5758 42.8839 40.5836V40.693C42.8839 42.3844 41.5128 43.7516 39.8253 43.7516L39.8096 43.7399ZM40.0792 35.9899C41.169 36.1384 42.0792 36.6305 42.6495 37.3805C43.1104 37.9899 43.3409 38.7594 43.3214 39.6305C43.212 39.5993 43.1104 39.5915 43.001 39.5719C42.8721 39.5524 42.751 39.5211 42.6221 39.5016C42.4815 39.4821 42.3409 39.4704 42.1924 39.4508C42.0831 39.4391 41.9737 39.4196 41.8526 39.4118C41.7042 39.4 41.5518 39.4 41.3917 39.3922C41.2901 39.3922 41.1807 39.3922 41.0831 39.3805H40.6221H40.3331C40.1924 39.3805 40.0518 39.4 39.9034 39.4118C39.8018 39.4118 39.6924 39.4235 39.5948 39.4313C39.4737 39.443 39.3565 39.4508 39.2432 39.4704C39.1221 39.4821 39.0049 39.4899 38.8917 39.5094C38.8214 39.5094 38.751 39.529 38.6807 39.5407C38.3018 39.5915 37.9424 39.6422 37.6104 39.6891C37.0792 39.7672 36.6104 39.8376 36.2315 39.861C35.9815 39.8727 35.8331 39.861 35.7628 39.861C36.0831 37.7829 37.9816 35.7126 40.0714 35.9899L40.0792 35.9899ZM25.7312 67.6739C26.1531 68.4356 26.4499 69.2442 26.6218 70.1036L25.9304 72.463L19.1999 71.674L25.7311 67.6857L25.7312 67.6739ZM27.3992 67.463L27.1375 68.3341C26.9773 67.9356 26.7859 67.545 26.5789 67.1544L27.1882 66.7833L27.3992 67.463ZM17.3092 80.432C13.2701 80.0531 10.0006 76.8422 9.55918 72.8109C9.27793 70.3109 10.0475 67.9125 11.7076 66.0492C13.3482 64.2211 15.6959 63.1703 18.1568 63.1703C20.9849 63.1703 23.5787 64.5414 25.1959 66.8305L18.5553 70.8891C18.4342 70.8383 18.2936 70.7992 18.1568 70.7992C17.5982 70.7992 17.1373 71.2602 17.1373 71.8187C17.1373 72.3773 17.5983 72.8382 18.1568 72.8382C18.3873 72.8382 18.5865 72.7484 18.7584 72.6195L25.649 73.4281L25.1802 75.0179C25.1217 75.2288 25.0904 75.4476 25.0904 75.6663V75.7171V75.7562C25.0904 75.9554 25.1217 76.1546 25.1685 76.3577C25.1685 76.3772 25.1802 76.389 25.1881 76.4085C25.2193 76.5101 25.2467 76.6077 25.2896 76.7093C23.5084 79.3187 20.4693 80.7405 17.3091 80.4398L17.3092 80.432ZM26.2897 76.4828C26.2194 76.3617 26.1686 76.2445 26.1412 76.1234V76.0843C26.11 75.975 26.1022 75.8656 26.0905 75.7445V75.6937C26.0905 75.5531 26.11 75.4242 26.149 75.3031L27.6296 70.2719C27.6296 70.2719 27.6296 70.2406 27.6413 70.2211L28.8718 66.0414C28.903 65.932 28.903 65.8031 28.8522 65.7016L23.9538 54.6626V54.6509L23.9148 54.5727L23.8054 54.311C23.8054 54.311 23.7742 54.2524 23.7546 54.2212C23.7038 54.1508 23.6765 54.0805 23.6335 54.0219C23.5828 53.9438 23.532 53.8735 23.5046 53.7915C23.4265 53.6001 23.364 53.4126 23.3327 53.2915C23.3327 53.2524 23.321 53.2212 23.3132 53.1899C23.2742 52.9712 23.2624 52.7407 23.2741 52.5298V52.518C23.3249 51.8266 23.6452 51.1899 24.1648 50.7289L33.0945 42.8891C34.0046 42.0884 35.3445 42.0102 36.3445 42.6977C36.3445 42.6977 36.364 42.6977 36.3757 42.7094C36.5476 42.8188 36.7038 42.9594 36.8562 43.1313L37.0554 43.3618L37.1765 43.5024C37.2976 43.6313 37.3874 43.7719 37.4578 43.9009C37.4578 43.9204 37.4773 43.9321 37.489 43.9516C37.7273 44.4399 39.1492 50.1 39.989 53.5414C40.0203 53.6821 40.1101 53.8032 40.239 53.8617L42.9187 55.2836C42.8875 55.354 42.8679 55.4321 42.8406 55.5141C42.821 55.5844 42.7898 55.643 42.7703 55.7133C42.6921 55.9633 42.6296 56.225 42.6101 56.4829C42.5984 56.5727 42.5984 56.6743 42.5984 56.7641V57.104C42.6296 57.2133 42.6374 57.3227 42.6492 57.3422C42.6492 57.393 42.6492 57.4516 42.6804 57.4907V57.5024L42.2195 57.4711C42.1101 57.4711 42.0085 57.5024 41.9187 57.561L40.5671 56.85L38.489 55.7484C38.3991 55.6977 38.3093 55.6391 38.2273 55.557C38.2273 55.557 38.2156 55.5375 38.2077 55.5375C38.1374 55.4594 38.0593 55.3656 37.989 55.2367C37.989 55.2367 37.989 55.2172 37.9773 55.2172L36.2585 48.7875C36.2194 48.6156 36.0866 48.4867 35.9186 48.4359C35.7468 48.3852 35.5671 48.4242 35.4382 48.5375L29.3991 53.8656L28.0475 55.057C27.9693 55.1273 27.9068 55.2289 27.8873 55.3265C27.8678 55.4281 27.8756 55.5375 27.9186 55.6351L29.6491 59.5453C29.6491 59.5453 29.6608 59.5844 29.6686 59.6039L31.4303 63.5648L32.1217 65.1156C32.1217 65.1156 32.1608 65.2172 32.192 65.307C32.2428 65.4476 32.2701 65.5961 32.2701 65.7484V65.768C32.2701 65.9086 32.2506 66.057 32.2115 66.1976L31.8912 67.2757L30.8131 70.9241C29.8717 72.3733 29.3248 74.096 29.3326 75.9553L29.2545 76.2249C29.2545 76.2249 29.2545 76.2561 29.2428 76.2639C29.192 76.4241 29.1217 76.5647 29.0045 76.7132C28.7662 77.0217 28.3951 77.2327 28.0045 77.2835H27.985C27.7936 77.2835 27.6061 77.2718 27.4459 77.2249L27.1373 77.135C26.7858 77.0335 26.4967 76.8069 26.3092 76.4944L26.2897 76.4828ZM38.4807 84.0336C38.219 84.0336 37.9494 84.0219 37.6916 83.9945C33.9104 83.6351 30.8518 80.6429 30.4025 76.8851C30.4025 76.8656 30.4025 76.8343 30.3908 76.807V76.7953C31.8322 76.4359 32.8908 75.1469 32.8908 73.5961C32.8908 72.9945 32.7306 72.4359 32.4299 71.9359L35.8401 68.2054C36.051 68.1351 36.2619 68.0452 36.4807 67.9944C36.5822 67.9749 36.6916 67.9554 36.7893 67.9358C36.2502 69.1546 35.9611 70.467 35.9611 71.8264C35.9611 73.385 36.3205 74.8772 37.0392 76.2678C37.0392 76.2678 37.0588 76.3069 37.0705 76.3186C37.1799 76.5296 37.301 76.7405 37.4299 76.9397C39.008 79.4592 41.5901 81.0686 44.4807 81.4006C42.9612 83.0725 40.801 84.0295 38.4924 84.0295L38.4807 84.0336ZM46.6916 80.643C46.6916 80.643 46.6525 80.5922 46.633 80.5648L46.6135 80.5336C46.4025 80.182 46.3517 79.7524 46.465 79.3617L49.1838 70.1C49.2151 69.9906 49.2033 69.8695 49.1643 69.7602L46.0354 62.6899L45.9338 62.4711L44.383 58.9828V58.9711L44.1135 58.3813C44.1135 58.3813 44.0822 58.3227 44.0627 58.2914C43.9533 58.143 43.8713 58.0023 43.8127 57.8422C43.7346 57.6625 43.6721 57.4711 43.6408 57.3422C43.6408 57.2836 43.6291 57.2211 43.6096 57.1625C43.6096 57.1117 43.5979 57.0609 43.59 57.0414V56.7523C43.59 56.7523 43.5783 56.6625 43.59 56.5727C43.6291 56.1312 43.7619 55.7133 44.0119 55.3422C44.1408 55.1312 44.301 54.9437 44.4924 54.7836L53.4221 46.9438C54.3323 46.143 55.6721 46.0649 56.6135 46.7055C56.6447 46.7367 56.6721 46.7563 56.7033 46.7758C56.8518 46.8774 57.0237 47.0141 57.1721 47.186L57.5002 47.5766C57.6096 47.6977 57.6994 47.8266 57.801 48.018C58.0315 48.5063 59.4494 54.1586 60.301 57.5961C60.3322 57.7367 60.4221 57.8578 60.551 57.9164L67.5315 61.6156C68.0706 61.9047 68.2932 62.5765 68.0002 63.1273L67.8792 63.3578C67.5979 63.889 66.9299 64.096 66.3909 63.8265C66.3713 63.8265 66.3518 63.807 66.3401 63.807L58.7815 59.7953C58.6096 59.7054 58.4612 59.557 58.3127 59.3148C58.2815 59.264 58.2619 59.2133 58.2424 59.1664L56.5705 52.8461C56.5314 52.6742 56.3986 52.5453 56.2307 52.4945C56.0705 52.4437 55.8791 52.4828 55.7502 52.5961L48.6096 58.8773L48.3479 59.1077C48.1877 59.2484 48.1291 59.4867 48.219 59.6859L51.3206 66.6742V66.6859L52.4417 69.2171C52.4417 69.2171 52.4612 69.2679 52.4925 69.3772C52.594 69.6585 52.6018 69.9788 52.512 70.2562L51.0432 75.2562C51.0432 75.2562 51.0315 75.2679 51.0315 75.2757L49.5627 80.2952C49.5627 80.2952 49.5627 80.3147 49.5509 80.3264C49.3713 80.885 48.8517 81.3069 48.2618 81.3576C48.0822 81.3772 47.8908 81.3576 47.7306 81.3069L47.422 81.217C47.0431 81.1155 46.7931 80.8655 46.6525 80.678L46.6916 80.643ZM55.8088 72.8227V72.6938L55.7971 72.682L62.4885 65.3539L63.008 67.2328C59.3869 68.4516 56.7892 71.8617 56.7775 75.893C56.258 74.9321 55.9181 73.8813 55.8087 72.8344L55.8088 72.8227ZM65.9298 84.0337C62.7696 84.0337 60.0314 82.2134 58.6798 79.5728C60.0704 80.604 61.711 81.2525 63.4689 81.4244C63.7892 81.4556 64.09 81.4634 64.4103 81.4634C67.5119 81.4634 70.3517 79.9946 72.1603 77.5337C72.3908 77.7447 72.6603 77.9126 72.9611 78.022V78.9009H73.5001C72.3009 81.9009 69.3595 84.0415 65.9298 84.0415L65.9298 84.0337ZM76.6918 75.7329L77.641 72.5141C77.7113 72.5531 77.7816 72.5727 77.8597 72.5727C78.0199 72.893 78.1293 73.2328 78.1293 73.6039C78.1293 74.5648 77.5394 75.393 76.6879 75.7328L76.6918 75.7329ZM78.0395 71.1509L78.7504 68.7407H79.2504C79.5317 68.729 79.7504 68.5024 79.7387 68.229C79.7387 67.9477 79.4692 67.7602 79.227 67.7407H79.1254C79.4965 67.5805 79.8168 67.3305 80.0668 67.0102L85.8949 59.8383H87.9965L88.0747 60.1391L78.0237 71.1511L78.0395 71.1509ZM91.8515 79.9712C87.3632 79.9712 83.7031 76.311 83.7031 71.8228C83.7031 68.2642 86.0039 65.233 89.1914 64.1236L91.1328 71.1041C90.9531 71.2838 90.832 71.5455 90.832 71.8228C90.832 72.3814 91.2929 72.8423 91.8515 72.8423C92.4101 72.8423 92.871 72.3814 92.871 71.8228C92.871 71.3541 92.5429 70.9713 92.1015 70.8541L90.1601 63.8541C90.7109 63.733 91.2695 63.6744 91.8515 63.6744C96.3398 63.6744 99.9999 67.3346 99.9999 71.8228C99.9999 76.3111 96.3397 79.9712 91.8515 79.9712Z" fill="white"/>
</svg>
