<svg width="110" height="135" viewBox="0 0 110 135" fill="none" xmlns="http://www.w3.org/2000/svg">
<path fill-rule="evenodd" clip-rule="evenodd" d="M83.75 27.828C83.75 32.2577 87.3594 35.8671 91.7891 35.8671C96.2188 35.8671 99.8282 32.2577 99.8282 27.828C99.8282 23.3983 96.2188 19.7889 91.7891 19.7889C87.3594 19.7889 83.75 23.3983 83.75 27.828ZM98.82 27.828C98.82 31.7069 95.6598 34.8671 91.7809 34.8671C87.902 34.8671 84.7418 31.7069 84.7418 27.828C84.7418 23.9491 87.902 20.7889 91.7809 20.7889C95.6598 20.7889 98.82 23.9491 98.82 27.828Z" fill="white"/>
<path fill-rule="evenodd" clip-rule="evenodd" d="M99.4296 74.3711L97.578 74.8515L86.93 56.4105L81.5784 47.141C81.3988 46.8324 80.887 46.8324 80.7074 47.141L75.3558 56.4105L72.4144 61.5121L51.5904 25.4221C51.5005 25.2737 51.3286 25.1917 51.1607 25.1917C51.0708 25.1917 50.9888 25.2112 50.9107 25.2502C50.8325 25.2893 50.77 25.3518 50.7193 25.4221L50.1997 26.3206L39.8207 44.3006C39.8207 44.3006 39.8207 44.3396 39.809 44.3513L9.01201 97.8003C8.91045 97.9722 8.92216 98.191 9.04326 98.3511C9.14482 98.48 9.29326 98.5503 9.4417 98.5503C9.48076 98.5503 9.51982 98.5503 9.56279 98.5386L20.2738 95.8589L99.6718 75.3389C99.9413 75.2686 100.101 74.9991 100.031 74.7295C99.9609 74.46 99.6913 74.2999 99.4218 74.3702L99.4296 74.3711ZM85.8906 56.59L83.75 59.09L81.4297 56.3205C81.3282 56.1995 81.1915 56.1409 81.0508 56.1409C80.961 56.1409 80.8711 56.1604 80.7891 56.2112L78.1485 57.7815L76.4493 56.512L81.1485 48.3714L85.8868 56.5823L85.8906 56.59ZM72.9996 62.5002L75.9488 57.3909L77.8199 58.7892C77.9801 58.9103 78.1989 58.9182 78.3785 58.8205L80.9371 57.301L83.359 60.1916C83.4489 60.301 83.5895 60.3713 83.7379 60.3713C83.8864 60.3713 84.0192 60.3127 84.1169 60.1994L86.4176 57.5197L96.5777 75.1097L82.3667 78.7816C82.3667 78.7816 82.3471 78.7035 82.3276 78.6722L72.9996 62.5002ZM61.3976 44.4102L57.296 47.4883L51.6163 44.1172C51.4054 43.9883 51.1359 44.0391 50.9757 44.2266L45.8663 50.3282L40.878 44.5079L51.159 26.6799L56.8074 36.469L61.3972 44.4182L61.3976 44.4102ZM40.3506 45.422L45.499 51.422C45.6006 51.5313 45.7295 51.5938 45.878 51.5938C46.0264 51.5938 46.167 51.5235 46.2569 51.4141L51.4678 45.1836L57.0694 48.5117C57.2412 48.6133 57.46 48.6016 57.6201 48.4805L61.8896 45.2696L81.3776 79.0196L65.7486 83.0587C67.4478 81.4806 68.2603 79.047 67.6588 76.6368C66.9088 73.6368 64.2174 71.6251 61.2604 71.6251C60.7292 71.6251 60.2018 71.6837 59.6588 71.8243C59.237 71.9337 58.8307 72.0743 58.4479 72.254L57.9792 71.4259H58.0495C58.7604 71.2462 59.2487 70.8946 59.5886 70.5743C60.3699 70.6056 61.0886 70.086 61.28 69.3126L61.3191 69.1329C61.5378 68.2423 60.9909 67.3438 60.1003 67.1134L54.78 65.7931C54.0417 64.3829 52.7097 61.8634 51.9284 60.4845C52.1276 60.4728 52.319 60.465 52.5182 60.4142C53.319 60.215 53.987 59.7228 54.4088 59.0158C54.8073 58.3557 54.9283 57.5939 54.7799 56.8439C54.7994 56.8322 54.819 56.8244 54.8307 56.8127C54.9401 56.7033 54.9908 56.5627 54.9713 56.4142C54.8619 55.383 54.4322 54.5353 53.7213 53.965C53.0104 53.3947 52.0611 53.1369 51.0416 53.2541C50.0924 53.3556 49.2408 53.9142 48.6432 54.8322C48.0924 55.6837 47.8346 56.7306 47.944 57.7228C47.9752 57.9728 48.0924 58.1837 48.2838 58.3009C48.4323 58.4025 48.5924 58.4298 48.7643 58.4298C48.8034 58.4298 48.8541 58.4181 48.8932 58.4181C48.8932 58.4376 48.8932 58.4493 48.9049 58.4689C48.0534 58.5001 47.2447 58.9181 46.733 59.6486L41.8424 66.6994C41.444 67.2892 41.2838 67.9885 41.3815 68.6994V68.7111V68.7306V68.7502C41.3815 68.7697 41.3815 68.7892 41.3932 68.8088C41.4127 68.9884 41.4635 69.1486 41.5338 69.3088L41.3854 69.34C41.2057 69.3713 41.0573 69.5002 40.9948 69.6681C40.9362 69.84 40.9752 70.0392 41.0963 70.1681L41.6862 70.8087C41.7877 70.9181 41.9166 70.9689 42.0572 70.9689C42.108 70.9689 42.1666 70.9689 42.2174 70.9377L42.6158 70.797L44.2955 72.9572L46.9049 77.258L46.2253 77.9494C45.0651 76.9807 43.5769 76.4182 42.0144 76.4182C41.4831 76.4182 40.9558 76.4768 40.4128 76.6175C36.6316 77.5589 34.4323 81.5784 35.823 85.3363C36.6433 87.5472 38.5925 89.0863 40.823 89.5082L20.003 94.8871L10.4444 97.2777L40.3234 45.4187L40.3506 45.422ZM43.21 69.8989L42.9796 69.6177C42.8897 69.5396 42.8077 69.4575 42.7491 69.3794C42.6593 69.27 42.6007 69.149 42.5499 69.0396C42.5499 69.0279 42.5382 69.0201 42.5304 69.0083C42.4796 68.899 42.4522 68.7896 42.4288 68.6802C42.4288 68.649 42.4093 68.6216 42.3975 68.5904C42.3194 68.1294 42.4288 67.6607 42.6866 67.2818L47.5772 60.231C48.0264 59.5708 48.8663 59.3013 49.628 59.5708C49.6475 59.5708 49.6593 59.5825 49.6788 59.5903C49.8077 59.6294 49.9288 59.6997 50.0577 59.7817L50.3468 59.981C50.4561 60.0513 50.546 60.1294 50.6163 60.2192C50.8858 60.5708 52.8468 64.2387 54.0147 66.4692C54.085 66.5982 54.1944 66.688 54.335 66.7192L59.8662 68.0903C60.2256 68.1802 60.4443 68.5396 60.3545 68.8989L60.3154 69.0708C60.2256 69.4224 59.874 69.6294 59.5146 69.5591L56.3154 68.77L55.1552 68.481L53.5068 68.0708C53.3857 68.0396 53.2764 67.981 53.1982 67.8911C53.1787 67.8716 53.1201 67.8013 53.0967 67.7817L50.835 63.6528C50.7569 63.5044 50.5967 63.4028 50.4248 63.3911C50.2529 63.3794 50.085 63.4614 49.9834 63.6021L45.9326 69.4537C45.8115 69.6334 45.8115 69.8755 45.9521 70.0435L47.8505 72.4927C47.8505 72.4927 47.8623 72.5122 47.8701 72.5239L49.331 74.4029L50.5419 75.9419L50.62 76.063C50.7216 76.2232 50.7802 76.4146 50.7684 76.6021L50.4481 84.1412V84.1607C50.4286 84.5318 50.1786 84.8599 49.8388 84.981C49.7177 85.0201 49.6005 85.0396 49.4989 85.0318H49.2684C49.0497 85.0123 48.8466 84.9303 48.6786 84.7818C48.6786 84.7818 48.6591 84.7623 48.6591 84.7506C48.4677 84.5592 48.3778 84.3209 48.3895 84.0592L48.6786 77.0983C48.6786 76.9772 48.6473 76.8678 48.5692 76.7701L43.2098 69.8912L43.21 69.8989ZM52.2803 59.45C51.9405 59.5281 51.5889 59.5281 51.2491 59.45C51.1476 59.3484 51.0304 59.2507 50.8976 59.1609L50.6085 58.9617C50.4484 58.8523 50.2882 58.7624 50.1202 58.6921C49.9992 58.532 49.9015 58.3523 49.8312 58.1609C50.0031 58.0906 50.1906 58.0203 50.3898 57.9421C50.6281 57.8406 50.8898 57.7312 51.171 57.6335C51.2413 57.6023 51.3195 57.5828 51.4015 57.5554C51.6124 57.4773 51.8312 57.3953 52.0499 57.325C52.1515 57.2937 52.2609 57.2664 52.3702 57.2351C52.5695 57.1765 52.7804 57.1257 52.9913 57.0867C53.1124 57.0671 53.2296 57.0554 53.3624 57.0359C53.5109 57.0164 53.6515 57.0046 53.8038 56.9968C54.0538 58.0866 53.3741 59.1882 52.2843 59.4577L52.2803 59.45ZM53.7881 55.9694C53.4796 55.989 53.1671 56.0202 52.8585 56.0788C52.8077 56.0788 52.7686 56.0984 52.7178 56.1101C52.4092 56.1687 52.1085 56.2507 51.8194 56.3405C51.7803 56.3523 51.7491 56.3601 51.71 56.3796C51.421 56.4695 51.1319 56.571 50.8585 56.6804C50.8272 56.6921 50.8077 56.6999 50.7803 56.7116C50.5108 56.821 50.2491 56.9226 50.0108 57.0202C49.6593 57.1687 49.3507 57.2898 49.0889 57.3796C49.0186 57.3991 48.9678 57.4187 48.9288 57.4304C48.8975 56.7312 49.1006 56.0007 49.4874 55.3992C49.9171 54.739 50.5069 54.3406 51.1593 54.2703C51.2803 54.2586 51.3975 54.2508 51.5186 54.2508C52.128 54.2508 52.6905 54.4305 53.1084 54.7703C53.4795 55.0594 53.7374 55.4812 53.878 55.9812C53.8467 55.9812 53.8194 55.9812 53.7881 55.9929L53.7881 55.9694ZM49.1201 72.5125L50.0186 72.282L49.6084 73.1414L49.1201 72.5007V72.5125ZM55.8506 69.6805L55.9014 69.782L55.5811 69.8601C55.6006 69.782 55.6124 69.7 55.6124 69.6219L55.8506 69.6805ZM54.6084 69.3797V69.4383V69.657C54.6084 69.6883 54.5772 69.7586 54.5694 69.7859C54.5499 69.8953 54.5108 70.0047 54.4092 70.157L51.7608 70.8172C51.7608 70.7273 51.7413 70.6375 51.6905 70.5672C51.6124 70.4266 51.46 70.3367 51.2999 70.3172L47.1202 69.9461L46.9483 69.7273L48.1671 67.9656L52.2374 68.325L52.2569 68.3563C52.296 68.4149 52.3468 68.4774 52.4366 68.5672C52.6554 68.7977 52.9366 68.9656 53.2452 69.0477L54.6046 69.3875L54.6084 69.3797ZM48.8193 67.0203L50.331 64.8406L51.6396 67.2625L48.8193 67.0125V67.0203ZM50.1709 71.2195L48.4521 71.6492L47.9639 71.0202L50.1748 71.2117L50.1709 71.2195ZM50.2999 74.032L51.2686 71.9734L53.8584 71.3249L51.667 75.9851C51.6162 75.8367 51.5459 75.6844 51.4678 75.5633C51.4287 75.4851 51.3662 75.4031 51.3193 75.3445L50.2998 74.0437L50.2999 74.032ZM51.6788 78.4812L51.9288 78.4109C52.1983 78.3405 52.3584 78.071 52.2881 77.8015C52.2491 77.6413 52.128 77.5202 51.9795 77.4734C52.1084 77.3327 52.2178 77.1648 52.3077 76.9851L55.1163 71.0163L56.4171 70.6882L56.4366 70.7272L51.6358 79.5866L51.6866 78.485L51.6788 78.4812ZM57.5382 70.6414L57.1788 70.0125L58.2686 70.282C58.128 70.3523 57.9795 70.4109 57.7998 70.4539C57.6905 70.4851 57.6006 70.5554 57.5303 70.6453L57.5382 70.6414ZM47.6202 78.3914L47.5811 79.4617C47.4014 79.1726 47.1905 78.9109 46.96 78.6609L47.4717 78.1414L47.6202 78.3914ZM47.0303 80.4695L46.96 82.0476L43.1319 82.5358L46.2608 79.3639C46.5616 79.7038 46.8194 80.0632 47.0303 80.4733L47.0303 80.4695ZM41.96 82.3015H41.8585C41.4678 82.403 41.2295 82.8015 41.3272 83.1921C41.4288 83.5827 41.8272 83.821 42.2178 83.7233C42.2881 83.7038 42.3584 83.6647 42.417 83.6335L46.9287 83.0632L46.8897 84.0046C46.8702 84.446 46.9678 84.8757 47.1787 85.2663C46.4092 87.028 44.7998 88.278 42.8584 88.5671C42.5889 88.6062 42.3194 88.6257 42.0499 88.6257C39.7218 88.6257 37.6085 87.1648 36.7999 84.9851C36.2295 83.4539 36.3389 81.8249 37.0889 80.407C37.8272 78.9968 39.1475 77.9656 40.6905 77.5867C41.1397 77.4773 41.589 77.4148 42.0499 77.4148C43.3194 77.4148 44.5499 77.8836 45.5382 78.6765L41.9601 82.3054L41.96 82.3015ZM48.1006 85.6023C48.4014 85.8405 48.7608 85.9929 49.1397 86.0242L49.2882 86.6257L51.0577 86.1843L50.878 85.4538C51.1866 85.1335 51.3975 84.7429 51.417 84.3249C51.417 84.2937 51.4287 84.2663 51.4287 84.2351V84.2038V83.9656C52.1397 83.5046 52.5185 82.657 52.2998 81.7937C52.2295 81.5241 52.1006 81.2937 51.9483 81.0827L56.9991 71.7546L57.5694 72.7663C55.3311 74.278 54.1475 77.0671 54.8389 79.8366C55.4483 82.2975 57.378 84.0749 59.6905 84.6374L46.2215 88.1179C47.0418 87.4382 47.6824 86.5788 48.0926 85.6062L48.1006 85.6023ZM60.5496 78.4226C60.6512 78.8132 61.0496 79.0515 61.4402 78.9538C61.8309 78.8523 62.0691 78.4538 61.9715 78.0632C61.9012 77.7937 61.6902 77.6023 61.4324 77.5437L58.9519 73.1453C59.2605 73.0047 59.573 72.8836 59.9129 72.8054C60.3621 72.6961 60.8113 72.6335 61.2723 72.6335C63.8426 72.6335 66.0809 74.3835 66.702 76.8835C67.0613 78.3327 66.8426 79.8445 66.0613 81.1219C65.2918 82.4031 64.0613 83.3132 62.6121 83.6726C62.1629 83.782 61.7137 83.8445 61.2527 83.8445C58.6746 83.8445 56.4441 82.0945 55.823 79.5945C55.4637 78.1453 55.6824 76.6336 56.4637 75.3562C56.8855 74.6648 57.4441 74.0867 58.0848 73.6453L60.5653 78.0359C60.5262 78.157 60.5145 78.2859 60.5457 78.4148L60.5496 78.4226Z" fill="white"/>
</svg>
