<svg width="100" height="125" viewBox="0 0 100 125" fill="none" xmlns="http://www.w3.org/2000/svg">
<path d="M56.2754 55.416C56.2754 61.123 60.9189 65.7666 66.626 65.7666C72.333 65.7666 76.9756 61.123 76.9756 55.416C76.9756 49.709 72.333 45.0654 66.626 45.0654C65.1694 45.0654 63.7839 45.3712 62.5253 45.9167L59.4639 33.2891H65.1865C65.2695 33.3115 65.3564 33.3232 65.4453 33.3232C66.8672 33.3232 68.0244 34.4805 68.0244 35.9023C68.0244 37.3242 66.8672 38.4814 65.4453 38.4814C64.8926 38.4814 64.4453 38.9287 64.4453 39.4814C64.4453 40.0342 64.8926 40.4814 65.4453 40.4814C67.9707 40.4814 70.0244 38.4277 70.0244 35.9023C70.0244 33.4648 68.1094 31.4658 65.7051 31.3301C65.6133 31.3037 65.5176 31.2891 65.4199 31.2891H58.1924C57.8857 31.2891 57.5957 31.4297 57.4062 31.6709C57.2168 31.9121 57.1484 32.2266 57.2207 32.5244L58.6649 38.4814H43.4836L41.3093 32.2334H43.8398C44.3926 32.2334 44.8398 31.7861 44.8398 31.2334C44.8398 30.6807 44.3926 30.2334 43.8398 30.2334H36.2295C35.6768 30.2334 35.2295 30.6807 35.2295 31.2334C35.2295 31.7861 35.6768 32.2334 36.2295 32.2334H39.1917L41.676 39.3724L37.7404 46.0449C36.4116 45.423 34.9354 45.0654 33.374 45.0654C27.667 45.0654 23.0244 49.709 23.0244 55.416C23.0244 61.123 27.667 65.7666 33.374 65.7666C38.2304 65.7666 42.3053 62.3997 43.4156 57.8808L44.7665 58.0765C45.0007 60.2339 46.8116 61.9248 49.0303 61.9248C51.4072 61.9248 53.3408 59.9912 53.3408 57.6143C53.3408 56.3142 52.7503 55.1608 51.8373 54.3698L59.7607 43.0018L60.7136 46.9324C58.0349 48.8052 56.2754 51.907 56.2754 55.416ZM33.374 63.7666C28.7705 63.7666 25.0244 60.0205 25.0244 55.416C25.0244 50.8115 28.7705 47.0654 33.374 47.0654C34.5649 47.0654 35.696 47.3202 36.7221 47.7714L32.5224 54.8917C32.5198 54.8959 32.5176 54.8999 32.5151 54.9042L32.5127 54.9082C32.4892 54.9481 32.4866 54.9924 32.4692 55.0339C32.4367 55.1115 32.3972 55.1855 32.3848 55.2725L32.385 55.277C32.3667 55.408 32.3735 55.5402 32.4061 55.6662C32.4291 55.7556 32.4774 55.8333 32.5232 55.9119C32.5421 55.9445 32.5491 55.9824 32.5718 56.0128C32.6497 56.1176 32.7485 56.2061 32.8624 56.2739L32.8662 56.2773C32.9704 56.3387 33.0817 56.3718 33.1944 56.3924C33.2074 56.3948 33.2173 56.4034 33.2305 56.4053L41.4268 57.5927C40.4656 61.1433 37.2245 63.7666 33.374 63.7666ZM41.7246 55.416C41.7246 55.4829 41.7161 55.5477 41.7145 55.6143L34.9924 54.6404L38.4409 48.7938C40.4326 50.3214 41.7246 52.7178 41.7246 55.416ZM39.4615 47.0635L42.5375 41.8483L46.7552 53.9683C45.9628 54.4646 45.3478 55.2065 45.0111 56.0919L43.7 55.9019C43.7076 55.7397 43.7246 55.58 43.7246 55.416C43.7246 51.9854 42.0397 48.9479 39.4615 47.0635ZM49.0303 59.9248C47.7559 59.9248 46.7197 58.8887 46.7197 57.6143C46.7197 56.3398 47.7559 55.3037 49.0303 55.3037C50.3047 55.3037 51.3408 56.3398 51.3408 57.6143C51.3408 58.8887 50.3047 59.9248 49.0303 59.9248ZM49.0303 53.3037C48.9017 53.3037 48.7806 53.3306 48.6549 53.3417L44.1796 40.4814H59.079L50.0483 53.4382C49.7203 53.358 49.3826 53.3037 49.0303 53.3037ZM74.9756 55.416C74.9756 60.0205 71.2295 63.7666 66.626 63.7666C62.0215 63.7666 58.2754 60.0205 58.2754 55.416C58.2754 52.7172 59.5679 50.3204 61.5603 48.7928L66.0732 55.9492C66.2637 56.251 66.5879 56.416 66.9199 56.416C67.1025 56.416 67.2871 56.3662 67.4521 56.2617C67.9199 55.9668 68.0596 55.3496 67.7646 54.8828L63.2798 47.7704C64.3054 47.3197 65.4359 47.0654 66.626 47.0654C71.2295 47.0654 74.9756 50.8115 74.9756 55.416Z" fill="white"/>
<path d="M50 10C27.9443 10 10 27.9443 10 50C10 72.0557 27.9443 90 50 90C72.0557 90 90 72.0557 90 50C90 27.9443 72.0557 10 50 10ZM50 88C29.0469 88 12 70.9531 12 50C12 29.0469 29.0469 12 50 12C70.9531 12 88 29.0469 88 50C88 70.9531 70.9531 88 50 88Z" fill="white"/>
<path d="M70.1347 25.6689C70.3212 25.8232 70.5468 25.8984 70.7714 25.8984C71.0595 25.8984 71.3447 25.7753 71.5429 25.5361C71.8945 25.1113 71.8359 24.4804 71.4101 24.1279C70.6288 23.4804 69.8124 22.8642 68.9833 22.2958C68.5292 21.9833 67.9062 22.0986 67.5937 22.5546C67.2812 23.0097 67.3964 23.6318 67.8525 23.9443C68.6308 24.4794 69.3994 25.0595 70.1347 25.6689Z" fill="white"/>
<path d="M81.8814 56.8213C81.3452 56.6914 80.8033 57.0186 80.6714 57.5547C80.4458 58.4785 80.1743 59.4014 79.8648 60.2969C79.6841 60.8184 79.9615 61.3877 80.4839 61.5684C80.5913 61.6055 80.7017 61.623 80.8101 61.623C81.2251 61.623 81.6128 61.3633 81.7554 60.9492C82.0845 59.9961 82.3736 59.0137 82.6148 58.0312C82.7456 57.4941 82.4175 56.9531 81.8814 56.8213Z" fill="white"/>
<path d="M24.5882 68.7549C24.2591 68.3106 23.6341 68.2149 23.1898 68.5459C22.7454 68.8741 22.6517 69.5 22.9808 69.9444C23.5843 70.7608 24.2288 71.5547 24.8968 72.3057C25.094 72.5274 25.3685 72.6407 25.6439 72.6407C25.8802 72.6407 26.1185 72.5577 26.3089 72.3877C26.721 72.0206 26.7581 71.3887 26.3909 70.9756C25.763 70.2696 25.1565 69.5225 24.5882 68.7549Z" fill="white"/>
<path d="M29.8156 74.289C29.3908 73.9355 28.758 73.9941 28.4074 74.4179C28.0539 74.8427 28.1115 75.4726 28.5363 75.8261C29.3107 76.4707 30.1252 77.0888 30.9582 77.664C31.132 77.7832 31.3293 77.8408 31.5255 77.8408C31.8429 77.8408 32.1554 77.6904 32.3498 77.4091C32.6632 76.9541 32.549 76.332 32.0949 76.0175C31.3107 75.4765 30.5441 74.8955 29.8156 74.289Z" fill="white"/>
<path d="M38.836 79.5508C37.9435 79.2129 37.0597 78.8321 36.2101 78.419C35.712 78.1768 35.1144 78.3848 34.8732 78.8809C34.6319 79.378 34.839 79.9766 35.3351 80.2178C36.2394 80.6573 37.1798 81.0626 38.129 81.4219C38.2452 81.4659 38.3644 81.4864 38.4825 81.4864C38.8859 81.4864 39.2667 81.2403 39.4181 80.8399C39.6134 80.3243 39.3527 79.7461 38.836 79.5508Z" fill="white"/>
<path d="M46.2289 81.3575C45.2846 81.2452 44.3353 81.0879 43.4086 80.8907C42.8705 80.7784 42.3373 81.1212 42.2221 81.6612C42.1078 82.2012 42.4525 82.7325 42.9926 82.8477C43.9789 83.0567 44.9877 83.2237 45.9926 83.3438C46.0326 83.3487 46.0727 83.3506 46.1117 83.3506C46.6117 83.3506 47.0434 82.9766 47.1039 82.4688C47.1693 81.92 46.7777 81.4229 46.2289 81.3575Z" fill="white"/>
<path d="M19.3438 57.6172C19.1152 56.6973 18.9268 55.7549 18.7832 54.8154C18.7002 54.2695 18.1885 53.8936 17.6445 53.9776C17.0986 54.0606 16.7227 54.5703 16.8067 55.1162C16.959 56.1162 17.1592 57.1201 17.4024 58.0996C17.5156 58.5547 17.9238 58.8584 18.3721 58.8584C18.4522 58.8584 18.5332 58.8486 18.6143 58.8291C19.1504 58.6963 19.4766 58.1533 19.3438 57.6172Z" fill="white"/>
<path d="M18.4189 50C18.4189 49.0654 18.46 48.126 18.54 47.207C18.5879 46.6572 18.1816 46.1719 17.6309 46.124C17.0879 46.0723 16.5967 46.4834 16.5479 47.0332C16.4619 48.0098 16.4189 49.0078 16.4189 50V50.0664C16.4189 50.6191 16.8662 51.0332 17.4189 51.0332C17.9717 51.0332 18.4189 50.5527 18.4189 50Z" fill="white"/>
<path d="M20.8365 62.1417C20.6256 61.6319 20.0377 61.3887 19.5299 61.6026C19.0201 61.8145 18.7779 62.3995 18.9898 62.9092C19.3765 63.837 19.8121 64.7628 20.2867 65.6602C20.4654 66.0001 20.8121 66.1934 21.1715 66.1934C21.3287 66.1934 21.4888 66.1563 21.6373 66.0772C22.1256 65.8194 22.3131 65.2149 22.0543 64.7266C21.609 63.8829 21.1998 63.0128 20.8365 62.1417Z" fill="white"/>
<path d="M53.8413 81.3496C52.8969 81.4638 51.938 81.5371 50.9907 81.5654C50.438 81.583 50.0044 82.0439 50.021 82.5957C50.0376 83.1377 50.4819 83.5654 51.02 83.5654C51.0307 83.5654 51.0415 83.5654 51.0512 83.5654C52.0591 83.5342 53.0786 83.457 54.0815 83.3359C54.6303 83.2695 55.021 82.7705 54.9546 82.2226C54.8882 81.6738 54.395 81.2822 53.8413 81.3496Z" fill="white"/>
<path d="M18.1048 43.2432C18.1849 43.2627 18.264 43.2715 18.3421 43.2715C18.7923 43.2715 19.2015 42.9648 19.3128 42.5078C19.5365 41.5859 19.806 40.6631 20.1146 39.7637C20.2933 39.2412 20.015 38.6719 19.4925 38.4932C18.9691 38.3174 18.4017 38.5928 18.222 39.1152C17.8948 40.0723 17.6077 41.0547 17.3695 42.0352C17.2386 42.5723 17.5687 43.1133 18.1048 43.2432Z" fill="white"/>
<path d="M79.1399 37.8008C79.3001 38.1826 79.6712 38.4131 80.0618 38.4131C80.1917 38.4131 80.3225 38.3887 80.4495 38.3349C80.9583 38.1211 81.1975 37.5351 80.9837 37.0254C80.5921 36.0928 80.1536 35.1689 79.6809 34.2793C79.4212 33.791 78.8167 33.6025 78.3294 33.8652C77.8411 34.124 77.6555 34.7295 77.9153 35.2168C78.3587 36.0537 78.7708 36.9228 79.1399 37.8008Z" fill="white"/>
<path d="M73.6458 27.5625C73.2337 27.9297 73.1975 28.5625 73.5657 28.9746C74.2005 29.6865 74.8089 30.4326 75.3733 31.1924C75.5696 31.457 75.8714 31.5967 76.177 31.5967C76.3841 31.5967 76.5931 31.5322 76.7718 31.3994C77.2151 31.0703 77.3079 30.4443 76.9788 30.001C76.3792 29.1924 75.7327 28.3994 75.0579 27.6426C74.6897 27.2315 74.0589 27.1963 73.6458 27.5625Z" fill="white"/>
<path d="M80.6417 42.3203C80.8712 43.2392 81.0616 44.1816 81.2071 45.122C81.2833 45.6152 81.7091 45.9687 82.1945 45.9687C82.2452 45.9687 82.297 45.9648 82.3487 45.957C82.8937 45.873 83.2677 45.3613 83.1837 44.8154C83.0294 43.8164 82.8263 42.8124 82.5812 41.8339C82.4474 41.2978 81.9034 40.9755 81.3683 41.1074C80.8331 41.2412 80.507 41.7841 80.6417 42.3203Z" fill="white"/>
<path d="M61.2265 79.5283C60.3418 79.8643 59.4277 80.165 58.5097 80.4219C57.9785 80.5703 57.6679 81.1221 57.8164 81.6543C57.9394 82.0957 58.3418 82.3848 58.7783 82.3848C58.8681 82.3848 58.959 82.373 59.0488 82.3477C60.0244 82.0752 60.9961 81.7549 61.9375 81.3975C62.4531 81.2012 62.7129 80.624 62.5166 80.1074C62.3213 79.5918 61.7451 79.331 61.2265 79.5283Z" fill="white"/>
<path d="M67.9564 75.9844C67.1752 76.5234 66.3607 77.0351 65.5326 77.5049C65.0521 77.7773 64.8832 78.3877 65.1556 78.8682C65.3402 79.1933 65.6781 79.375 66.0267 79.375C66.1937 79.375 66.3636 79.333 66.5189 79.2451C67.3988 78.7461 68.265 78.2021 69.0931 77.6289C69.5482 77.3144 69.6615 76.6924 69.347 76.2383C69.0316 75.7832 68.4086 75.6689 67.9564 75.9844Z" fill="white"/>
<path d="M81.5811 49.8662V50C81.5811 50.9482 81.5382 51.9092 81.4532 52.8574C81.4044 53.4072 81.8097 53.8926 82.3604 53.9424C82.3907 53.9453 82.421 53.9463 82.4503 53.9463C82.962 53.9463 83.3985 53.5557 83.4454 53.0352C83.5352 52.0293 83.5811 51.0078 83.5811 50V49.8662C83.5811 49.3135 83.1339 48.8662 82.5811 48.8662C82.0284 48.8662 81.5811 49.3135 81.5811 49.8662Z" fill="white"/>
<path d="M79.3254 64.251C78.8342 63.9951 78.2317 64.1817 77.9748 64.6699C77.5315 65.5137 77.0451 66.3438 76.5305 67.1387C76.2297 67.6026 76.3615 68.2217 76.8254 68.5215C76.9934 68.6309 77.1819 68.6826 77.3684 68.6826C77.6965 68.6826 78.0168 68.5215 78.2082 68.2266C78.7561 67.3809 79.2737 66.4981 79.7444 65.6016C80.0022 65.1123 79.8137 64.5078 79.3254 64.251Z" fill="white"/>
<path d="M73.6484 70.9326C73.0185 71.6435 72.3476 72.3349 71.6562 72.9873C71.2539 73.3662 71.2353 73.999 71.6142 74.4004C71.8105 74.6094 72.0761 74.7148 72.3417 74.7148C72.5878 74.7148 72.8349 74.625 73.0273 74.4424C73.7636 73.749 74.4755 73.0146 75.1445 72.2588C75.5107 71.8457 75.4726 71.2139 75.0595 70.8476C74.6464 70.4814 74.0146 70.5195 73.6484 70.9326Z" fill="white"/>
<path d="M38.3554 20.5615C38.4745 20.5615 38.5946 20.54 38.7128 20.4951C39.5946 20.1582 40.5087 19.8554 41.4276 19.5966C41.9589 19.4462 42.2684 18.8935 42.119 18.3623C41.9686 17.832 41.4188 17.5234 40.8847 17.6709C39.9081 17.9472 38.9364 18.2685 37.9979 18.6279C37.4823 18.8251 37.2245 19.4033 37.4218 19.9189C37.5741 20.3173 37.953 20.5615 38.3554 20.5615Z" fill="white"/>
<path d="M45.9714 18.666C46.0115 18.666 46.0535 18.6641 46.0945 18.6582C47.0388 18.542 47.9978 18.4678 48.9451 18.4365C49.4968 18.4189 49.9304 17.957 49.9119 17.4053C49.8943 16.8643 49.4509 16.4375 48.9138 16.4375C48.9021 16.4375 48.8914 16.4375 48.8806 16.4385C47.8728 16.4707 46.8533 16.5498 45.8503 16.6738C45.3025 16.7412 44.9128 17.2402 44.9802 17.7881C45.0427 18.2949 45.4734 18.666 45.9714 18.666Z" fill="white"/>
<path d="M20.6464 35.8096C20.7938 35.8877 20.9521 35.9238 21.1083 35.9238C21.4687 35.9238 21.8173 35.7285 21.995 35.3867C22.4364 34.543 22.9208 33.7119 23.4345 32.916C23.7333 32.4522 23.5995 31.833 23.1356 31.5332C22.6708 31.2363 22.0526 31.3682 21.7528 31.832C21.2069 32.6787 20.6923 33.5625 20.2235 34.4609C19.9677 34.9502 20.1562 35.5537 20.6464 35.8096Z" fill="white"/>
<path d="M61.1033 20.4258C61.988 20.7579 62.8728 21.1368 63.7331 21.5518C63.8738 21.6192 64.0212 21.6514 64.1667 21.6514C64.5388 21.6514 64.8962 21.4434 65.0681 21.086C65.3083 20.5879 65.0994 19.9903 64.6023 19.751C63.6882 19.3096 62.7478 18.9073 61.8064 18.5528C61.2927 18.3604 60.7136 18.6202 60.5183 19.1377C60.324 19.6543 60.5857 20.2315 61.1033 20.4258Z" fill="white"/>
<path d="M53.7071 18.6337C54.6476 18.7441 55.5968 18.8984 56.5294 19.0937C56.5987 19.1084 56.6671 19.1152 56.7354 19.1152C57.1983 19.1152 57.6143 18.7919 57.713 18.3203C57.8263 17.7793 57.4796 17.25 56.9395 17.1367C55.9483 16.9287 54.9395 16.7646 53.9395 16.6474C53.3927 16.581 52.8946 16.9765 52.8302 17.5244C52.7657 18.0732 53.1583 18.5693 53.7071 18.6337Z" fill="white"/>
<path d="M25.5597 29.4541C25.8361 29.4541 26.1115 29.3398 26.3097 29.1152C26.9386 28.4033 27.6066 27.7109 28.297 27.0576C28.6984 26.6777 28.715 26.0449 28.3361 25.6435C27.9552 25.2412 27.3224 25.2275 26.922 25.6045C26.1886 26.2988 25.4777 27.0351 24.8097 27.7929C24.4445 28.207 24.4835 28.8388 24.8986 29.2041C25.088 29.372 25.3244 29.4541 25.5597 29.4541Z" fill="white"/>
<path d="M31.4222 24.2325C31.6195 24.2325 31.8187 24.1749 31.9926 24.0538C32.7719 23.5118 33.5853 22.9981 34.4105 22.5284C34.891 22.2549 35.059 21.6446 34.7855 21.1651C34.5111 20.6846 33.8978 20.5167 33.4222 20.7901C32.5433 21.2901 31.6781 21.835 30.85 22.4112C30.3969 22.7266 30.2845 23.3506 30.6 23.8038C30.7943 24.0831 31.1058 24.2325 31.4222 24.2325Z" fill="white"/>
</svg>
