<svg width="64" height="80" viewBox="0 0 64 80" fill="none" xmlns="http://www.w3.org/2000/svg">
<g clip-path="url(#clip0_169_32866)">
<path d="M49.9995 40V35C49.9995 32.72 48.4495 30.81 46.3595 30.21C47.3495 29.48 47.9995 28.32 47.9995 27C47.9995 24.79 46.2095 23 43.9995 23C41.7895 23 39.9995 24.79 39.9995 27C39.9995 28.32 40.6495 29.48 41.6395 30.21C40.9295 30.41 40.2795 30.77 39.7395 31.24C39.0695 29.06 37.1895 27.41 34.8895 27.07C36.1695 26.16 37.0095 24.68 37.0095 23C37.0095 20.24 34.7695 18 32.0095 18C29.2495 18 27.0095 20.24 27.0095 23C27.0095 24.68 27.8495 26.17 29.1295 27.07C26.8295 27.41 24.9395 29.06 24.2795 31.24C23.7295 30.77 23.0895 30.41 22.3795 30.21C23.3695 29.48 24.0195 28.32 24.0195 27C24.0195 24.79 22.2295 23 20.0195 23C17.8095 23 16.0195 24.79 16.0195 27C16.0195 28.32 16.6695 29.48 17.6595 30.21C15.5695 30.81 14.0195 32.72 14.0195 35V40C14.0195 40.55 14.4695 41 15.0195 41H24.0195C24.0195 41.55 24.4695 42 25.0195 42H39.0195C39.5695 42 40.0195 41.55 40.0195 41H49.0195C49.5695 41 50.0195 40.55 50.0195 40H49.9995ZM19.9995 25C21.0995 25 21.9995 25.9 21.9995 27C21.9995 28.1 21.0995 29 19.9995 29C18.8995 29 17.9995 28.1 17.9995 27C17.9995 25.9 18.8995 25 19.9995 25ZM23.9995 39H15.9995V35C15.9995 33.35 17.3495 32 18.9995 32H20.9995C22.6495 32 23.9995 33.35 23.9995 35V39ZM28.9995 23C28.9995 21.35 30.3495 20 31.9995 20C33.6495 20 34.9995 21.35 34.9995 23C34.9995 24.65 33.6495 26 31.9995 26C30.3495 26 28.9995 24.65 28.9995 23ZM37.9995 40H25.9995V33C25.9995 30.79 27.7895 29 29.9995 29H33.9995C36.2095 29 37.9995 30.79 37.9995 33V40ZM43.9995 25C45.0995 25 45.9995 25.9 45.9995 27C45.9995 28.1 45.0995 29 43.9995 29C42.8995 29 41.9995 28.1 41.9995 27C41.9995 25.9 42.8995 25 43.9995 25ZM47.9995 39H39.9995V35C39.9995 33.35 41.3495 32 42.9995 32H44.9995C46.6495 32 47.9995 33.35 47.9995 35V39Z" fill="white"/>
<path d="M59.7704 43.38C61.2504 39.77 62.0004 35.94 62.0004 32C62.0004 27.33 60.9604 22.85 58.9004 18.7L57.1104 19.59C59.0304 23.47 60.0103 27.6399 60.0103 32.0099C60.0103 35.6899 59.3104 39.26 57.9304 42.63L59.7803 43.3899L59.7704 43.38Z" fill="white"/>
<path d="M39.7204 5.07998L40.2704 3.15998C34.5604 1.51998 28.3304 1.63998 22.6904 3.47998L23.3104 5.37998C28.5804 3.65998 34.4004 3.55998 39.7304 5.07998H39.7204Z" fill="white"/>
<path d="M5.18 18.55C3.07 22.75 2 27.27 2 32C2 35.56 2.62 39.04 3.83 42.34L5.71 41.65C4.58 38.56 4 35.32 4 31.99C4 27.58 5 23.35 6.96 19.44L5.17 18.54L5.18 18.55Z" fill="white"/>
<path d="M23.3104 58.62L22.6904 60.52C25.6904 61.5 28.8204 61.99 32.0004 61.99C34.4504 61.99 36.8904 61.69 39.2404 61.11L38.7604 59.17C33.7104 60.42 28.2604 60.23 23.3104 58.62Z" fill="white"/>
<path d="M11 43C5.49 43 1 47.49 1 53C1 58.51 5.49 63 11 63C16.51 63 21 58.51 21 53C21 47.49 16.51 43 11 43ZM11 61C6.59 61 3 57.41 3 53C3 48.59 6.59 45 11 45C15.41 45 19 48.59 19 53C19 57.41 15.41 61 11 61Z" fill="white"/>
<path d="M9.5 49H7.5V51H9.5V49Z" fill="white"/>
<path d="M14.5 49H12.5V51H14.5V49Z" fill="white"/>
<path d="M11.0003 56C9.57027 56 8.32027 55.04 7.97027 53.65L6.03027 54.15C6.61027 56.42 8.66027 58 11.0003 58C13.3403 58 15.3903 56.42 15.9703 54.15L14.0303 53.65C13.6703 55.03 12.4303 56 11.0003 56Z" fill="white"/>
<path d="M3 16H8.7L14.45 19.83C14.62 19.94 14.81 20 15 20C15.16 20 15.32 19.96 15.47 19.88C15.8 19.71 16 19.37 16 19V16H18C19.1 16 20 15.1 20 14V3C20 1.9 19.1 1 18 1H3C1.9 1 1 1.9 1 3V14C1 15.1 1.9 16 3 16ZM3 3H18V14H15C14.45 14 14 14.45 14 15V17.13L9.55 14.17C9.39 14.06 9.19 14 9 14H3V3Z" fill="white"/>
<path d="M57.4297 1C55.9197 1 54.5097 1.64 53.4497 2.82L52.8797 3.45L52.3097 2.82C51.2497 1.65 49.8397 1 48.3297 1C46.8197 1 45.4097 1.64 44.3497 2.82C42.5197 4.85 42.2397 8.04 43.6697 10.41C45.0497 12.7 46.7897 14.65 48.8397 16.2L52.2697 18.8C52.4497 18.94 52.6597 19 52.8697 19C53.0797 19 53.2997 18.93 53.4697 18.8L56.8997 16.2C58.9497 14.64 60.6897 12.69 62.0697 10.41C63.4997 8.04 63.2097 4.84 61.3897 2.82C60.3297 1.65 58.9197 1 57.4097 1H57.4297ZM60.3797 9.38C59.1297 11.45 57.5597 13.21 55.7097 14.61L52.8897 16.75L50.0697 14.61C48.2197 13.21 46.6497 11.45 45.3997 9.38C44.4097 7.74 44.5997 5.55 45.8497 4.16C46.5197 3.41 47.4097 3 48.3397 3C49.2697 3 50.1597 3.41 50.8297 4.16L52.1397 5.61C52.5197 6.03 53.2497 6.03 53.6297 5.61L54.9397 4.16C55.6097 3.41 56.4997 3 57.4297 3C58.3597 3 59.2497 3.41 59.9197 4.16C61.1697 5.55 61.3597 7.74 60.3797 9.38Z" fill="white"/>
<path d="M59.7698 51.9999H58.0898L58.8598 48.9299C59.2098 47.5399 58.4498 46.1299 57.1298 45.7199C55.7898 45.2999 54.3698 45.9999 53.8798 47.2999L52.5998 50.6999C52.3098 51.4799 51.5598 51.9999 50.7298 51.9999H49.0098C49.0098 51.4499 48.5598 50.9999 48.0098 50.9999H43.0098C42.4598 50.9999 42.0098 51.4499 42.0098 51.9999V61.9999C42.0098 62.5499 42.4598 62.9999 43.0098 62.9999H48.0098C48.5598 62.9999 49.0098 62.5499 49.0098 61.9999H49.1898L50.4598 62.8299C50.6198 62.9399 50.8098 62.9999 51.0098 62.9999H59.2198C60.7498 62.9999 62.0298 61.8499 62.1998 60.3299L62.7598 55.3299C62.8498 54.4799 62.5798 53.6299 62.0098 52.9999C61.4398 52.3699 60.6298 51.9999 59.7698 51.9999ZM46.9998 60.9999H43.9998V52.9999H46.9998V60.9999ZM60.1998 60.1099C60.1398 60.6199 59.7198 60.9999 59.2098 60.9999H51.2998L50.0398 60.1699C49.8798 60.0599 49.6898 59.9999 49.4898 59.9999H48.9998V53.9999H50.7198C52.3798 53.9999 53.8798 52.9599 54.4698 51.4099L55.7498 48.0099C55.8498 47.7399 56.1498 47.5199 56.5398 47.6399C56.8298 47.7299 57.0098 48.1099 56.9198 48.4599L55.8398 52.7699C55.7598 53.0699 55.8398 53.3899 56.0198 53.6299C56.2098 53.8699 56.4998 54.0099 56.8098 54.0099H59.7798C60.0698 54.0099 60.3298 54.1299 60.5298 54.3399C60.7198 54.5499 60.8098 54.8299 60.7798 55.1199L60.2198 60.1199L60.1998 60.1099Z" fill="white"/>
<path d="M1.775 76.635C1.775 76.375 1.74333 76.1867 1.68 76.07C1.62 75.95 1.50833 75.89 1.345 75.89C1.255 75.89 1.18 75.915 1.12 75.965C1.06333 76.0117 1.01833 76.09 0.985 76.2C0.951667 76.3067 0.928333 76.4483 0.915 76.625C0.901667 76.7983 0.895 77.0117 0.895 77.265C0.895 77.535 0.903333 77.7533 0.92 77.92C0.94 78.0867 0.968333 78.2167 1.005 78.31C1.045 78.4 1.09333 78.4617 1.15 78.495C1.21 78.525 1.27833 78.54 1.355 78.54C1.41833 78.54 1.47667 78.53 1.53 78.51C1.58667 78.4867 1.635 78.4433 1.675 78.38C1.715 78.3133 1.74667 78.2217 1.77 78.105C1.79333 77.985 1.805 77.8283 1.805 77.635H2.525C2.525 77.8283 2.51 78.0117 2.48 78.185C2.45 78.3583 2.39333 78.51 2.31 78.64C2.23 78.77 2.115 78.8717 1.965 78.945C1.81833 79.0183 1.62667 79.055 1.39 79.055C1.12 79.055 0.905 79.0117 0.745 78.925C0.585 78.8383 0.461667 78.7133 0.375 78.55C0.291667 78.3867 0.236667 78.1917 0.21 77.965C0.186667 77.7383 0.175 77.4883 0.175 77.215C0.175 76.945 0.186667 76.6967 0.21 76.47C0.236667 76.24 0.291667 76.0433 0.375 75.88C0.461667 75.7167 0.585 75.59 0.745 75.5C0.905 75.4067 1.12 75.36 1.39 75.36C1.64667 75.36 1.84833 75.4017 1.995 75.485C2.145 75.5683 2.25667 75.675 2.33 75.805C2.40333 75.9317 2.44833 76.07 2.465 76.22C2.485 76.3667 2.495 76.505 2.495 76.635H1.775ZM2.91555 76.31H3.57555V76.67H3.58555C3.65555 76.54 3.74055 76.4367 3.84055 76.36C3.94055 76.28 4.06221 76.24 4.20555 76.24C4.22555 76.24 4.24555 76.2417 4.26555 76.245C4.28888 76.245 4.31055 76.2467 4.33055 76.25V76.91C4.29388 76.9067 4.25721 76.905 4.22055 76.905C4.18721 76.9017 4.15221 76.9 4.11555 76.9C4.05555 76.9 3.99555 76.9083 3.93555 76.925C3.87555 76.9417 3.82055 76.97 3.77055 77.01C3.72055 77.0467 3.68055 77.0967 3.65055 77.16C3.62055 77.22 3.60555 77.295 3.60555 77.385V79H2.91555V76.31ZM5.87559 77.35C5.87225 77.2467 5.86559 77.1567 5.85559 77.08C5.84559 77 5.82725 76.9333 5.80059 76.88C5.77725 76.8233 5.74225 76.7817 5.69559 76.755C5.65225 76.725 5.59559 76.71 5.52559 76.71C5.45559 76.71 5.39725 76.7267 5.35059 76.76C5.30725 76.79 5.27225 76.8317 5.24559 76.885C5.21892 76.935 5.19892 76.9917 5.18559 77.055C5.17559 77.1183 5.17059 77.1817 5.17059 77.245V77.35H5.87559ZM5.17059 77.76V77.975C5.17059 78.055 5.17559 78.1333 5.18559 78.21C5.19892 78.2833 5.21892 78.35 5.24559 78.41C5.27225 78.4667 5.30725 78.5133 5.35059 78.55C5.39392 78.5833 5.44725 78.6 5.51059 78.6C5.62725 78.6 5.71225 78.5583 5.76559 78.475C5.81892 78.3917 5.85559 78.265 5.87559 78.095H6.49559C6.48225 78.4083 6.39892 78.6467 6.24559 78.81C6.09225 78.9733 5.85059 79.055 5.52059 79.055C5.27059 79.055 5.07559 79.0133 4.93559 78.93C4.79559 78.8467 4.69225 78.7367 4.62559 78.6C4.55892 78.4633 4.51725 78.31 4.50059 78.14C4.48725 77.97 4.48059 77.8 4.48059 77.63C4.48059 77.45 4.49225 77.2767 4.51559 77.11C4.54225 76.9433 4.59225 76.795 4.66559 76.665C4.74225 76.535 4.85059 76.4317 4.99059 76.355C5.13059 76.2783 5.31725 76.24 5.55059 76.24C5.75059 76.24 5.91392 76.2733 6.04059 76.34C6.17059 76.4033 6.27225 76.495 6.34559 76.615C6.41892 76.7317 6.46892 76.875 6.49559 77.045C6.52225 77.2117 6.53559 77.3983 6.53559 77.605V77.76H5.17059ZM8.15004 77.655C8.10337 77.6917 8.05337 77.7217 8.00004 77.745C7.94671 77.765 7.89837 77.78 7.85504 77.79C7.71504 77.82 7.61504 77.87 7.55504 77.94C7.49504 78.01 7.46504 78.105 7.46504 78.225C7.46504 78.3283 7.48504 78.4167 7.52504 78.49C7.56504 78.5633 7.63171 78.6 7.72504 78.6C7.77171 78.6 7.82004 78.5933 7.87004 78.58C7.92004 78.5633 7.96504 78.5383 8.00504 78.505C8.04837 78.4717 8.08337 78.4283 8.11004 78.375C8.13671 78.3217 8.15004 78.2583 8.15004 78.185V77.655ZM6.89004 77.135V77.07C6.89004 76.9133 6.91504 76.7833 6.96504 76.68C7.01504 76.5733 7.08171 76.4883 7.16504 76.425C7.25171 76.3583 7.35171 76.3117 7.46504 76.285C7.58171 76.255 7.70504 76.24 7.83504 76.24C8.04171 76.24 8.20837 76.26 8.33504 76.3C8.46171 76.34 8.56004 76.3967 8.63004 76.47C8.70004 76.5433 8.74671 76.6317 8.77004 76.735C8.79671 76.835 8.81004 76.945 8.81004 77.065V78.48C8.81004 78.6067 8.81504 78.705 8.82504 78.775C8.83837 78.845 8.86171 78.92 8.89504 79H8.23504C8.21171 78.9567 8.19337 78.9117 8.18004 78.865C8.17004 78.815 8.16004 78.7667 8.15004 78.72H8.14004C8.06004 78.86 7.96671 78.9517 7.86004 78.995C7.75671 79.035 7.62171 79.055 7.45504 79.055C7.33504 79.055 7.23337 79.035 7.15004 78.995C7.06671 78.9517 7.00004 78.8933 6.95004 78.82C6.90004 78.7467 6.86337 78.665 6.84004 78.575C6.81671 78.4817 6.80504 78.39 6.80504 78.3C6.80504 78.1733 6.81837 78.065 6.84504 77.975C6.87171 77.8817 6.91171 77.8033 6.96504 77.74C7.02171 77.6733 7.09171 77.6183 7.17504 77.575C7.26171 77.5317 7.36504 77.4933 7.48504 77.46L7.87504 77.355C7.97837 77.3283 8.05004 77.2917 8.09004 77.245C8.13004 77.1983 8.15004 77.13 8.15004 77.04C8.15004 76.9367 8.12504 76.8567 8.07504 76.8C8.02837 76.74 7.94671 76.71 7.83004 76.71C7.72337 76.71 7.64337 76.7417 7.59004 76.805C7.53671 76.8683 7.51004 76.9533 7.51004 77.06V77.135H6.89004ZM9.45227 75.54H10.1423V76.31H10.5423V76.78H10.1423V78.235C10.1423 78.3417 10.1573 78.4183 10.1873 78.465C10.2206 78.5083 10.2873 78.53 10.3873 78.53C10.4139 78.53 10.4406 78.53 10.4673 78.53C10.4939 78.5267 10.5189 78.5233 10.5423 78.52V79C10.4656 79 10.3906 79.0017 10.3173 79.005C10.2473 79.0117 10.1723 79.015 10.0923 79.015C9.95893 79.015 9.84893 79.0067 9.76227 78.99C9.67893 78.97 9.61393 78.9333 9.56727 78.88C9.52393 78.8233 9.49393 78.75 9.47727 78.66C9.4606 78.57 9.45227 78.4567 9.45227 78.32V76.78H9.10227V76.31H9.45227V75.54ZM12.0768 77.35C12.0734 77.2467 12.0668 77.1567 12.0568 77.08C12.0468 77 12.0284 76.9333 12.0018 76.88C11.9784 76.8233 11.9434 76.7817 11.8968 76.755C11.8534 76.725 11.7968 76.71 11.7268 76.71C11.6568 76.71 11.5984 76.7267 11.5518 76.76C11.5084 76.79 11.4734 76.8317 11.4468 76.885C11.4201 76.935 11.4001 76.9917 11.3868 77.055C11.3768 77.1183 11.3718 77.1817 11.3718 77.245V77.35H12.0768ZM11.3718 77.76V77.975C11.3718 78.055 11.3768 78.1333 11.3868 78.21C11.4001 78.2833 11.4201 78.35 11.4468 78.41C11.4734 78.4667 11.5084 78.5133 11.5518 78.55C11.5951 78.5833 11.6484 78.6 11.7118 78.6C11.8284 78.6 11.9134 78.5583 11.9668 78.475C12.0201 78.3917 12.0568 78.265 12.0768 78.095H12.6968C12.6834 78.4083 12.6001 78.6467 12.4468 78.81C12.2934 78.9733 12.0518 79.055 11.7218 79.055C11.4718 79.055 11.2768 79.0133 11.1368 78.93C10.9968 78.8467 10.8934 78.7367 10.8268 78.6C10.7601 78.4633 10.7184 78.31 10.7018 78.14C10.6884 77.97 10.6818 77.8 10.6818 77.63C10.6818 77.45 10.6934 77.2767 10.7168 77.11C10.7434 76.9433 10.7934 76.795 10.8668 76.665C10.9434 76.535 11.0518 76.4317 11.1918 76.355C11.3318 76.2783 11.5184 76.24 11.7518 76.24C11.9518 76.24 12.1151 76.2733 12.2418 76.34C12.3718 76.4033 12.4734 76.495 12.5468 76.615C12.6201 76.7317 12.6701 76.875 12.6968 77.045C12.7234 77.2117 12.7368 77.3983 12.7368 77.605V77.76H11.3718ZM14.4762 78.715H14.4662C14.3895 78.8417 14.3029 78.93 14.2062 78.98C14.1129 79.03 13.9962 79.055 13.8562 79.055C13.5729 79.055 13.3645 78.9467 13.2312 78.73C13.0979 78.5133 13.0312 78.155 13.0312 77.655C13.0312 77.155 13.0979 76.795 13.2312 76.575C13.3645 76.3517 13.5729 76.24 13.8562 76.24C13.9862 76.24 14.0962 76.2667 14.1862 76.32C14.2795 76.3733 14.3629 76.4533 14.4362 76.56H14.4462V75.43H15.1362V79H14.4762V78.715ZM13.7212 77.655C13.7212 77.9483 13.7429 78.17 13.7862 78.32C13.8329 78.4667 13.9312 78.54 14.0812 78.54C14.2345 78.54 14.3329 78.4667 14.3762 78.32C14.4229 78.17 14.4462 77.9483 14.4462 77.655C14.4462 77.3617 14.4229 77.1417 14.3762 76.995C14.3329 76.845 14.2345 76.77 14.0812 76.77C13.9312 76.77 13.8329 76.845 13.7862 76.995C13.7429 77.1417 13.7212 77.3617 13.7212 77.655ZM16.7974 75.43H17.4874V76.56H17.4974C17.5707 76.4533 17.6524 76.3733 17.7424 76.32C17.8357 76.2667 17.9474 76.24 18.0774 76.24C18.3607 76.24 18.569 76.3517 18.7024 76.575C18.8357 76.795 18.9024 77.155 18.9024 77.655C18.9024 78.155 18.8357 78.5133 18.7024 78.73C18.569 78.9467 18.3607 79.055 18.0774 79.055C17.9374 79.055 17.819 79.03 17.7224 78.98C17.629 78.93 17.544 78.8417 17.4674 78.715H17.4574V79H16.7974V75.43ZM17.4874 77.655C17.4874 77.9483 17.509 78.17 17.5524 78.32C17.599 78.4667 17.699 78.54 17.8524 78.54C18.0024 78.54 18.099 78.4667 18.1424 78.32C18.189 78.17 18.2124 77.9483 18.2124 77.655C18.2124 77.3617 18.189 77.1417 18.1424 76.995C18.099 76.845 18.0024 76.77 17.8524 76.77C17.699 76.77 17.599 76.845 17.5524 76.995C17.509 77.1417 17.4874 77.3617 17.4874 77.655ZM19.2974 79.35C19.3574 79.36 19.4174 79.365 19.4774 79.365C19.604 79.365 19.694 79.3317 19.7474 79.265C19.804 79.1983 19.8374 79.11 19.8474 79L19.0924 76.31H19.8124L20.2124 78.17H20.2224L20.5724 76.31H21.2624L20.6124 78.82C20.5524 79.0433 20.494 79.2233 20.4374 79.36C20.384 79.5 20.319 79.6067 20.2424 79.68C20.169 79.7567 20.079 79.8067 19.9724 79.83C19.869 79.8533 19.7374 79.865 19.5774 79.865H19.2974V79.35ZM23.4602 75.43V76.86H23.4702L24.3802 75.43H25.1602L24.1902 76.96L25.2702 79H24.4602L23.7252 77.535L23.4602 77.94V79H22.7402V75.43H23.4602ZM26.6608 77.655C26.6141 77.6917 26.5641 77.7217 26.5108 77.745C26.4574 77.765 26.4091 77.78 26.3658 77.79C26.2258 77.82 26.1258 77.87 26.0658 77.94C26.0058 78.01 25.9758 78.105 25.9758 78.225C25.9758 78.3283 25.9958 78.4167 26.0358 78.49C26.0758 78.5633 26.1424 78.6 26.2358 78.6C26.2824 78.6 26.3308 78.5933 26.3808 78.58C26.4308 78.5633 26.4758 78.5383 26.5158 78.505C26.5591 78.4717 26.5941 78.4283 26.6208 78.375C26.6474 78.3217 26.6608 78.2583 26.6608 78.185V77.655ZM25.4008 77.135V77.07C25.4008 76.9133 25.4258 76.7833 25.4758 76.68C25.5258 76.5733 25.5924 76.4883 25.6758 76.425C25.7624 76.3583 25.8624 76.3117 25.9758 76.285C26.0924 76.255 26.2158 76.24 26.3458 76.24C26.5524 76.24 26.7191 76.26 26.8458 76.3C26.9724 76.34 27.0708 76.3967 27.1408 76.47C27.2108 76.5433 27.2574 76.6317 27.2808 76.735C27.3074 76.835 27.3208 76.945 27.3208 77.065V78.48C27.3208 78.6067 27.3258 78.705 27.3358 78.775C27.3491 78.845 27.3724 78.92 27.4058 79H26.7458C26.7224 78.9567 26.7041 78.9117 26.6908 78.865C26.6808 78.815 26.6708 78.7667 26.6608 78.72H26.6508C26.5708 78.86 26.4774 78.9517 26.3708 78.995C26.2674 79.035 26.1324 79.055 25.9658 79.055C25.8458 79.055 25.7441 79.035 25.6608 78.995C25.5774 78.9517 25.5108 78.8933 25.4608 78.82C25.4108 78.7467 25.3741 78.665 25.3508 78.575C25.3274 78.4817 25.3158 78.39 25.3158 78.3C25.3158 78.1733 25.3291 78.065 25.3558 77.975C25.3824 77.8817 25.4224 77.8033 25.4758 77.74C25.5324 77.6733 25.6024 77.6183 25.6858 77.575C25.7724 77.5317 25.8758 77.4933 25.9958 77.46L26.3858 77.355C26.4891 77.3283 26.5608 77.2917 26.6008 77.245C26.6408 77.1983 26.6608 77.13 26.6608 77.04C26.6608 76.9367 26.6358 76.8567 26.5858 76.8C26.5391 76.74 26.4574 76.71 26.3408 76.71C26.2341 76.71 26.1541 76.7417 26.1008 76.805C26.0474 76.8683 26.0208 76.9533 26.0208 77.06V77.135H25.4008ZM27.813 76.31H28.473V76.585H28.483C28.5697 76.4617 28.6663 76.3733 28.773 76.32C28.883 76.2667 29.013 76.24 29.163 76.24C29.323 76.24 29.4563 76.2767 29.563 76.35C29.673 76.4233 29.7463 76.53 29.783 76.67H29.793C29.8463 76.5267 29.9313 76.42 30.048 76.35C30.168 76.2767 30.3097 76.24 30.473 76.24C30.703 76.24 30.8713 76.31 30.978 76.45C31.088 76.5867 31.143 76.785 31.143 77.045V79H30.453V77.12C30.453 77.0067 30.4313 76.92 30.388 76.86C30.348 76.8 30.2797 76.77 30.183 76.77C30.073 76.77 29.9847 76.8067 29.918 76.88C29.8547 76.9533 29.823 77.07 29.823 77.23V79H29.133V77.12C29.133 77.0067 29.1113 76.92 29.068 76.86C29.028 76.8 28.9597 76.77 28.863 76.77C28.753 76.77 28.6647 76.8067 28.598 76.88C28.5347 76.9533 28.503 77.07 28.503 77.23V79H27.813V76.31ZM31.6271 75.39H32.3171V75.98H31.6271V75.39ZM31.6271 76.31H32.3171V79H31.6271V76.31ZM32.8032 76.31H33.4632V76.625H33.4732C33.5466 76.4917 33.6416 76.395 33.7582 76.335C33.8749 76.2717 34.0082 76.24 34.1582 76.24C34.3782 76.24 34.5466 76.3 34.6632 76.42C34.7832 76.54 34.8432 76.735 34.8432 77.005V79H34.1532V77.145C34.1532 77.005 34.1299 76.9083 34.0832 76.855C34.0366 76.7983 33.9616 76.77 33.8582 76.77C33.6149 76.77 33.4932 76.9183 33.4932 77.215V79H32.8032V76.31ZM38.1094 76.49C38.1094 76.4233 38.1011 76.355 38.0844 76.285C38.0711 76.215 38.0477 76.1517 38.0144 76.095C37.9811 76.035 37.9377 75.9867 37.8844 75.95C37.8344 75.91 37.7727 75.89 37.6994 75.89C37.5261 75.89 37.4011 75.9867 37.3244 76.18C37.2477 76.3733 37.2094 76.6933 37.2094 77.14C37.2094 77.3533 37.2161 77.5467 37.2294 77.72C37.2427 77.8933 37.2661 78.0417 37.2994 78.165C37.3361 78.285 37.3861 78.3783 37.4494 78.445C37.5161 78.5083 37.6011 78.54 37.7044 78.54C37.7477 78.54 37.7944 78.5283 37.8444 78.505C37.8977 78.4817 37.9461 78.4467 37.9894 78.4C38.0361 78.3533 38.0744 78.295 38.1044 78.225C38.1344 78.1517 38.1494 78.0667 38.1494 77.97V77.605H37.6744V77.075H38.8394V79H38.3094V78.67H38.2994C38.2127 78.81 38.1077 78.91 37.9844 78.97C37.8644 79.0267 37.7194 79.055 37.5494 79.055C37.3294 79.055 37.1494 79.0167 37.0094 78.94C36.8727 78.8633 36.7644 78.745 36.6844 78.585C36.6077 78.425 36.5561 78.2283 36.5294 77.995C36.5027 77.7583 36.4894 77.485 36.4894 77.175C36.4894 76.875 36.5077 76.6117 36.5444 76.385C36.5844 76.1583 36.6511 75.97 36.7444 75.82C36.8377 75.6667 36.9611 75.5517 37.1144 75.475C37.2677 75.3983 37.4594 75.36 37.6894 75.36C38.0827 75.36 38.3661 75.4583 38.5394 75.655C38.7127 75.8483 38.7994 76.1267 38.7994 76.49H38.1094ZM39.3077 75.39H39.9977V75.98H39.3077V75.39ZM39.3077 76.31H39.9977V79H39.3077V76.31ZM40.4839 76.31H41.1439V76.625H41.1539C41.2272 76.4917 41.3222 76.395 41.4389 76.335C41.5556 76.2717 41.6889 76.24 41.8389 76.24C42.0589 76.24 42.2272 76.3 42.3439 76.42C42.4639 76.54 42.5239 76.735 42.5239 77.005V79H41.8339V77.145C41.8339 77.005 41.8106 76.9083 41.7639 76.855C41.7172 76.7983 41.6422 76.77 41.5389 76.77C41.2956 76.77 41.1739 76.9183 41.1739 77.215V79H40.4839V76.31ZM43.6989 75.43V77.315H43.7089L44.4039 76.31H45.1639L44.3889 77.37L45.2789 79H44.5189L43.9439 77.895L43.6989 78.215V79H43.0089V75.43H43.6989ZM46.7389 77.655C46.6922 77.6917 46.6422 77.7217 46.5889 77.745C46.5356 77.765 46.4872 77.78 46.4439 77.79C46.3039 77.82 46.2039 77.87 46.1439 77.94C46.0839 78.01 46.0539 78.105 46.0539 78.225C46.0539 78.3283 46.0739 78.4167 46.1139 78.49C46.1539 78.5633 46.2206 78.6 46.3139 78.6C46.3606 78.6 46.4089 78.5933 46.4589 78.58C46.5089 78.5633 46.5539 78.5383 46.5939 78.505C46.6372 78.4717 46.6722 78.4283 46.6989 78.375C46.7256 78.3217 46.7389 78.2583 46.7389 78.185V77.655ZM45.4789 77.135V77.07C45.4789 76.9133 45.5039 76.7833 45.5539 76.68C45.6039 76.5733 45.6706 76.4883 45.7539 76.425C45.8406 76.3583 45.9406 76.3117 46.0539 76.285C46.1706 76.255 46.2939 76.24 46.4239 76.24C46.6306 76.24 46.7972 76.26 46.9239 76.3C47.0506 76.34 47.1489 76.3967 47.2189 76.47C47.2889 76.5433 47.3356 76.6317 47.3589 76.735C47.3856 76.835 47.3989 76.945 47.3989 77.065V78.48C47.3989 78.6067 47.4039 78.705 47.4139 78.775C47.4272 78.845 47.4506 78.92 47.4839 79H46.8239C46.8006 78.9567 46.7822 78.9117 46.7689 78.865C46.7589 78.815 46.7489 78.7667 46.7389 78.72H46.7289C46.6489 78.86 46.5556 78.9517 46.4489 78.995C46.3456 79.035 46.2106 79.055 46.0439 79.055C45.9239 79.055 45.8222 79.035 45.7389 78.995C45.6556 78.9517 45.5889 78.8933 45.5389 78.82C45.4889 78.7467 45.4522 78.665 45.4289 78.575C45.4056 78.4817 45.3939 78.39 45.3939 78.3C45.3939 78.1733 45.4072 78.065 45.4339 77.975C45.4606 77.8817 45.5006 77.8033 45.5539 77.74C45.6106 77.6733 45.6806 77.6183 45.7639 77.575C45.8506 77.5317 45.9539 77.4933 46.0739 77.46L46.4639 77.355C46.5672 77.3283 46.6389 77.2917 46.6789 77.245C46.7189 77.1983 46.7389 77.13 46.7389 77.04C46.7389 76.9367 46.7139 76.8567 46.6639 76.8C46.6172 76.74 46.5356 76.71 46.4189 76.71C46.3122 76.71 46.2322 76.7417 46.1789 76.805C46.1256 76.8683 46.0989 76.9533 46.0989 77.06V77.135H45.4789ZM49.1861 77.35C49.1828 77.2467 49.1761 77.1567 49.1661 77.08C49.1561 77 49.1378 76.9333 49.1111 76.88C49.0878 76.8233 49.0528 76.7817 49.0061 76.755C48.9628 76.725 48.9061 76.71 48.8361 76.71C48.7661 76.71 48.7078 76.7267 48.6611 76.76C48.6178 76.79 48.5828 76.8317 48.5561 76.885C48.5295 76.935 48.5095 76.9917 48.4961 77.055C48.4861 77.1183 48.4811 77.1817 48.4811 77.245V77.35H49.1861ZM48.4811 77.76V77.975C48.4811 78.055 48.4861 78.1333 48.4961 78.21C48.5095 78.2833 48.5295 78.35 48.5561 78.41C48.5828 78.4667 48.6178 78.5133 48.6611 78.55C48.7045 78.5833 48.7578 78.6 48.8211 78.6C48.9378 78.6 49.0228 78.5583 49.0761 78.475C49.1295 78.3917 49.1661 78.265 49.1861 78.095H49.8061C49.7928 78.4083 49.7095 78.6467 49.5561 78.81C49.4028 78.9733 49.1611 79.055 48.8311 79.055C48.5811 79.055 48.3861 79.0133 48.2461 78.93C48.1061 78.8467 48.0028 78.7367 47.9361 78.6C47.8695 78.4633 47.8278 78.31 47.8111 78.14C47.7978 77.97 47.7911 77.8 47.7911 77.63C47.7911 77.45 47.8028 77.2767 47.8261 77.11C47.8528 76.9433 47.9028 76.795 47.9761 76.665C48.0528 76.535 48.1611 76.4317 48.3011 76.355C48.4411 76.2783 48.6278 76.24 48.8611 76.24C49.0611 76.24 49.2245 76.2733 49.3511 76.34C49.4811 76.4033 49.5828 76.495 49.6561 76.615C49.7295 76.7317 49.7795 76.875 49.8061 77.045C49.8328 77.2117 49.8461 77.3983 49.8461 77.605V77.76H48.4811ZM50.0106 76.31H50.7006L51.0156 78.22H51.0256L51.3606 76.31H52.1106L52.4656 78.22H52.4756L52.8006 76.31H53.4606L52.8806 79H52.0956L51.7406 77.09H51.7306L51.3956 79H50.5956L50.0106 76.31Z" fill="white"/>
</g>
<defs>
<clipPath id="clip0_169_32866">
<rect width="64" height="80" fill="white"/>
</clipPath>
</defs>
</svg>
