<svg width="141" height="134" viewBox="0 0 141 134" fill="none" xmlns="http://www.w3.org/2000/svg">
<path d="M2.592 116.734V84.0936H15.264C22.128 84.0936 26.592 87.9336 26.592 93.9336C26.592 99.8376 22.128 103.678 15.264 103.678H8.064V116.734H2.592ZM8.064 99.2616H15.024C18.864 99.2616 21.168 97.2936 21.216 93.9336C21.216 90.5736 18.96 88.6536 15.024 88.6536H8.064V99.2616ZM40.1599 117.07C33.0079 117.07 28.0159 112.174 28.0159 105.07C28.0159 98.1096 33.1039 93.0696 40.0639 93.0696C47.6959 93.0696 51.7279 98.5416 51.7279 105.31H32.8639C32.9599 109.774 35.9359 112.894 40.4479 112.894C43.3279 112.894 45.6319 111.406 46.5919 109.054H51.3919C49.9519 113.758 46.3039 117.07 40.1599 117.07ZM33.3919 101.95H46.6879C45.8239 98.9256 43.4239 97.0536 40.2079 97.0536C36.9919 97.0536 34.4479 98.9736 33.3919 101.95ZM65.5838 117.07C59.1998 117.07 54.6878 112.126 54.6878 105.07C54.6878 98.0136 59.2478 93.0696 65.5838 93.0696C69.2798 93.0696 72.1598 94.7016 73.9358 97.4856V83.1336H79.1678V116.734H74.3198V112.03C72.5918 115.198 69.5678 117.07 65.5838 117.07ZM59.8238 105.022C59.8238 109.438 62.6078 112.606 66.7838 112.606C70.9118 112.606 73.8878 109.438 73.8878 105.022C73.8878 100.606 70.9118 97.5336 66.7838 97.5336C62.7038 97.5336 59.8238 100.606 59.8238 105.022ZM91.2585 116.974C86.3625 116.974 83.0025 113.806 83.0025 109.246C83.0025 104.638 86.2665 101.47 91.0665 101.47C93.7065 101.47 95.8665 102.478 97.1625 104.254V101.182C97.1625 98.4936 95.8185 96.9576 93.4185 96.9576C91.2585 96.9576 89.7225 98.0136 89.1945 99.6456H84.1545C85.2585 95.5176 88.7625 93.0696 93.6105 93.0696C99.3225 93.0696 102.443 96.2376 102.443 101.758V116.734H97.4985V113.758C96.3465 115.774 94.0905 116.974 91.2585 116.974ZM88.2345 109.15C88.2345 111.694 90.0585 113.422 92.6505 113.422C94.6665 113.422 96.2985 112.51 97.1625 110.734V107.902C96.2985 106.078 94.6185 105.022 92.5065 105.022C89.9625 105.022 88.2345 106.75 88.2345 109.15ZM107.405 116.734V83.1336H112.685V116.734H107.405ZM125.927 116.734L125.879 106.942H116.327V102.862H125.831V93.4056H130.055V102.862H139.511V106.942H130.055V116.734H125.927Z" fill="white"/>
<path d="M57.5 29.7336V6.73364L53 2.73364L42.5 5.23364L34 8.23364L28 16.2336V63.7336L34 68.2336L42.5 72.7336L53 75.2336L57.5 70.7336V47.7336" stroke="white" stroke-width="5"/>
<path d="M75.5 29.7336V6.73364L80 2.73364L90.5 5.23364L99 8.23364L105 16.2336V63.7336L99 68.2336L90.5 72.7336L80 75.2336L75.5 70.7336V47.7336" stroke="white" stroke-width="5"/>
</svg>
