<svg width="100" height="125" viewBox="0 0 100 125" fill="none" xmlns="http://www.w3.org/2000/svg">
<path d="M55.6035 19.9648H53.6035C53.0513 19.9648 52.6035 20.4121 52.6035 20.9648C52.6035 21.5176 53.0513 21.9648 53.6035 21.9648H55.6035C56.1558 21.9648 56.6035 21.5176 56.6035 20.9648C56.6035 20.4121 56.1558 19.9648 55.6035 19.9648Z" fill="white"/>
<path d="M53.4658 64.249C53.4658 63.6963 53.0181 63.249 52.4658 63.249H48.4707C47.9185 63.249 47.4707 63.6963 47.4707 64.249C47.4707 64.8018 47.9185 65.249 48.4707 65.249H52.4658C53.0181 65.249 53.4658 64.8018 53.4658 64.249Z" fill="white"/>
<path d="M49.8506 34.4883H45.8555C45.3032 34.4883 44.8555 34.9355 44.8555 35.4883C44.8555 36.041 45.3032 36.4883 45.8555 36.4883H49.8506C50.4028 36.4883 50.8506 36.041 50.8506 35.4883C50.8506 34.9355 50.4028 34.4883 49.8506 34.4883Z" fill="white"/>
<path d="M45.8379 50.0527C45.8379 50.6055 46.2856 51.0527 46.8379 51.0527H50.833C51.3853 51.0527 51.833 50.6055 51.833 50.0527C51.833 49.5 51.3853 49.0527 50.833 49.0527H46.8379C46.2856 49.0527 45.8379 49.5 45.8379 50.0527Z" fill="white"/>
<path d="M62.9749 44.083C62.8728 44.626 63.2298 45.1494 63.7728 45.251C63.8353 45.2627 63.8973 45.2686 63.9588 45.2686C64.4305 45.2686 64.8499 44.9336 64.9407 44.4541C65.0325 43.9648 65.0794 43.4609 65.0794 42.9551V42.585C65.0789 41.7012 64.9373 40.832 64.658 40.0029C64.4822 39.4805 63.9163 39.1992 63.3914 39.374C62.868 39.5508 62.5862 40.1182 62.7625 40.6416C62.9725 41.2646 63.0789 41.9189 63.0794 42.5859V42.9551C63.0794 43.3369 63.0442 43.7158 62.9749 44.083Z" fill="white"/>
<path d="M60.1533 35.1328C59.1489 34.7051 58.082 34.4883 56.9824 34.4883H55.8438C55.2915 34.4883 54.8438 34.9355 54.8438 35.4883C54.8438 36.041 55.2915 36.4883 55.8438 36.4883H56.9824C57.8115 36.4883 58.6147 36.6514 59.3701 36.9727C59.498 37.0273 59.6309 37.0527 59.7612 37.0527C60.1499 37.0527 60.52 36.8252 60.6816 36.4443C60.8979 35.9365 60.6616 35.3486 60.1533 35.1328Z" fill="white"/>
<path d="M63.4541 64.249C63.4541 63.6963 63.0063 63.249 62.4541 63.249H58.459C57.9067 63.249 57.459 63.6963 57.459 64.249C57.459 64.8018 57.9067 65.249 58.459 65.249H62.4541C63.0063 65.249 63.4541 64.8018 63.4541 64.249Z" fill="white"/>
<path d="M53.9277 80.0352H57.9229C58.4751 80.0352 58.9229 79.5879 58.9229 79.0352C58.9229 78.4824 58.4751 78.0352 57.9229 78.0352H53.9277C53.3755 78.0352 52.9277 78.4824 52.9277 79.0352C52.9277 79.5879 53.3755 80.0352 53.9277 80.0352Z" fill="white"/>
<path d="M60.1206 48.1836C59.1763 48.7519 58.0908 49.0517 56.9824 49.0527H56.8262C56.2739 49.0527 55.8262 49.5 55.8262 50.0527C55.8262 50.6054 56.2739 51.0527 56.8262 51.0527H56.9834C58.4551 51.0517 59.896 50.6523 61.1509 49.8984C61.6245 49.6132 61.7773 48.999 61.4927 48.5254C61.208 48.0527 60.5933 47.8994 60.1206 48.1836Z" fill="white"/>
<path d="M47.6113 21.9648C48.1636 21.9648 48.6113 21.5176 48.6113 20.9648C48.6113 20.4121 48.1636 19.9648 47.6113 19.9648H43.6162C43.064 19.9648 42.6162 20.4121 42.6162 20.9648C42.6162 21.5176 43.064 21.9648 43.6162 21.9648H47.6113Z" fill="white"/>
<path d="M27.6348 19.9648H23.6396C23.0874 19.9648 22.6396 20.4121 22.6396 20.9648C22.6396 21.5176 23.0874 21.9648 23.6396 21.9648H27.6348C28.187 21.9648 28.6348 21.5176 28.6348 20.9648C28.6348 20.4121 28.187 19.9648 27.6348 19.9648Z" fill="white"/>
<path d="M16.2328 34.1983C15.7059 34.0303 15.1439 34.3194 14.9749 34.8448C14.806 35.3702 15.0955 35.9336 15.6214 36.1026C16.4183 36.3584 17.2518 36.4883 18.098 36.4883H19.8866C20.4388 36.4883 20.8866 36.0411 20.8866 35.4883C20.8866 34.9356 20.4388 34.4883 19.8866 34.4883H18.098C17.4593 34.4883 16.8319 34.3907 16.2328 34.1983Z" fill="white"/>
<path d="M12.0303 27.4502C12.085 26.9004 11.6841 26.4101 11.1348 26.3555C10.582 26.3096 10.0952 26.7021 10.0401 27.251C10.0132 27.5185 9.99952 27.79 10 28.0625V28.3896C10 29.5283 10.2319 30.6299 10.6895 31.664C10.8545 32.0381 11.2207 32.2597 11.6045 32.2597C11.7398 32.2597 11.877 32.2324 12.0083 32.1748C12.5137 31.9512 12.7417 31.3603 12.5186 30.8555C12.1743 30.0771 12 29.2471 12 28.3896V28.0605C11.9995 27.8545 12.0103 27.6514 12.0303 27.4502Z" fill="white"/>
<path d="M17.5841 19.9814C16.0553 20.0781 14.5914 20.6035 13.3507 21.5029C12.9034 21.8271 12.8038 22.4521 13.128 22.8994C13.3233 23.1689 13.6285 23.3124 13.9386 23.3124C14.1417 23.3124 14.3473 23.2509 14.5245 23.122C15.4581 22.4453 16.5592 22.0497 17.71 21.9775C18.2613 21.9423 18.6798 21.4677 18.6451 20.9169C18.6109 20.3652 18.1485 19.957 17.5841 19.9814Z" fill="white"/>
<path d="M24.8789 35.4883C24.8789 36.041 25.3267 36.4883 25.8789 36.4883H29.874C30.4263 36.4883 30.874 36.041 30.874 35.4883C30.874 34.9355 30.4263 34.4883 29.874 34.4883H25.8789C25.3267 34.4883 24.8789 34.9355 24.8789 35.4883Z" fill="white"/>
<path d="M42.1466 64.3671C42.2922 64.4414 42.4474 64.4765 42.6003 64.4765C42.964 64.4765 43.3151 64.2773 43.4919 63.9316C43.7428 63.4394 43.548 62.8369 43.0558 62.5859C42.029 62.0615 41.174 61.2607 40.5827 60.2695C40.2995 59.7949 39.6862 59.6416 39.2116 59.9238C38.737 60.206 38.5822 60.8203 38.8649 61.2949C39.6496 62.6093 40.7843 63.6718 42.1466 64.3671Z" fill="white"/>
<path d="M63.916 80.0352H67.9111C68.4634 80.0352 68.9111 79.5879 68.9111 79.0352C68.9111 78.4824 68.4634 78.0352 67.9111 78.0352H63.916C63.3638 78.0352 62.916 78.4824 62.916 79.0352C62.916 79.5879 63.3638 80.0352 63.916 80.0352Z" fill="white"/>
<path d="M38.7548 55.9599C38.8549 55.9921 38.9565 56.0068 39.0566 56.0068C39.4809 56.0068 39.8749 55.7343 40.0097 55.3086C40.3559 54.2129 41.0063 53.2382 41.8905 52.4912C42.3124 52.1347 42.3651 51.5039 42.0087 51.082C41.6523 50.6591 41.0219 50.6064 40.5995 50.9638C39.4262 51.955 38.5629 53.249 38.1025 54.705C37.9359 55.2324 38.2279 55.7939 38.7548 55.9599Z" fill="white"/>
<path d="M37.623 21.9648C38.1753 21.9648 38.623 21.5176 38.623 20.9648C38.623 20.4121 38.1753 19.9648 37.623 19.9648H33.6279C33.0757 19.9648 32.6279 20.4121 32.6279 20.9648C32.6279 21.5176 33.0757 21.9648 33.6279 21.9648H37.623Z" fill="white"/>
<path d="M40.8623 35.4883C40.8623 34.9355 40.4146 34.4883 39.8623 34.4883H35.8672C35.3149 34.4883 34.8672 34.9355 34.8672 35.4883C34.8672 36.041 35.3149 36.4883 35.8672 36.4883H39.8623C40.4146 36.4883 40.8623 36.041 40.8623 35.4883Z" fill="white"/>
<path d="M73.9043 80.0352H77.8994C78.4517 80.0352 78.8994 79.5879 78.8994 79.0352C78.8994 78.4824 78.4517 78.0352 77.8994 78.0352H73.9043C73.3521 78.0352 72.9043 78.4824 72.9043 79.0352C72.9043 79.5879 73.3521 80.0352 73.9043 80.0352Z" fill="white"/>
<path d="M73.4424 64.249C73.4424 63.6963 72.9946 63.249 72.4424 63.249H68.4473C67.895 63.249 67.4473 63.6963 67.4473 64.249C67.4473 64.8018 67.895 65.249 68.4473 65.249H72.4424C72.9946 65.249 73.4424 64.8018 73.4424 64.249Z" fill="white"/>
<path d="M83.8577 79.7022C83.9583 79.7022 84.0608 79.6876 84.1619 79.6553C85.6174 79.1905 86.909 78.3243 87.8972 77.1514C88.2532 76.7286 88.199 76.0977 87.7766 75.7422C87.3548 75.3858 86.7239 75.4415 86.3679 75.8624C85.6228 76.7471 84.6497 77.3995 83.5535 77.7491C83.0276 77.917 82.7371 78.4805 82.905 79.0059C83.0408 79.4317 83.4339 79.7022 83.8577 79.7022Z" fill="white"/>
<path d="M88.8463 71.9112C89.3975 71.878 89.817 71.4043 89.7838 70.8526C89.6915 69.3233 89.169 67.8584 88.273 66.6153C87.9503 66.168 87.3263 66.0674 86.877 66.3887C86.4293 66.7119 86.3277 67.3369 86.651 67.7852C87.3248 68.7198 87.7179 69.8223 87.7877 70.9737C87.8194 71.5039 88.2598 71.9131 88.7847 71.9131C88.8053 71.9131 88.8253 71.9121 88.8463 71.9112Z" fill="white"/>
<path d="M82.332 65.2803C82.3652 65.2832 82.3984 65.2852 82.4307 65.2852C82.9395 65.2852 83.3745 64.8994 83.4248 64.3828C83.479 63.833 83.0767 63.3437 82.5273 63.29C82.2559 63.2637 81.98 63.249 81.7012 63.249H78.4355C77.8833 63.249 77.4355 63.6963 77.4355 64.249C77.4355 64.8018 77.8833 65.249 78.4355 65.249H81.7012C81.9146 65.249 82.125 65.2598 82.332 65.2803Z" fill="white"/>
<path d="M45.7705 80.0352H47.7705C48.3228 80.0352 48.7705 79.5879 48.7705 79.0352C48.7705 78.4824 48.3228 78.0352 47.7705 78.0352H45.7705C45.2183 78.0352 44.7705 78.4824 44.7705 79.0352C44.7705 79.5879 45.2183 80.0352 45.7705 80.0352Z" fill="white"/>
<path d="M22.4009 89.6895C22.5898 89.8877 22.8516 90 23.125 90C23.1284 90 23.1313 90 23.1348 90C23.4116 89.9971 23.6753 89.8799 23.8623 89.6758C24.3682 89.124 36.25 76.0508 36.25 66.7031C36.25 59.4658 30.3623 53.5781 23.125 53.5781C15.8877 53.5781 10 59.4658 10 66.7031C10 76.5654 21.8945 89.1582 22.4009 89.6895ZM23.125 55.5781C29.2593 55.5781 34.25 60.5684 34.25 66.7031C34.25 74.0215 25.689 84.5107 23.1118 87.501C20.522 84.5908 12 74.4268 12 66.7031C12 60.5684 16.9907 55.5781 23.125 55.5781Z" fill="white"/>
<path d="M23.1245 71.4131C26.0483 71.4131 28.4268 69.0352 28.4268 66.1113C28.4268 63.1875 26.0483 60.8086 23.1245 60.8086C20.2007 60.8086 17.8223 63.1875 17.8223 66.1113C17.8223 69.0352 20.2007 71.4131 23.1245 71.4131ZM23.1245 62.8086C24.9453 62.8086 26.4268 64.29 26.4268 66.1113C26.4268 67.9316 24.9453 69.4131 23.1245 69.4131C21.3037 69.4131 19.8223 67.9316 19.8223 66.1113C19.8223 64.29 21.3037 62.8086 23.1245 62.8086Z" fill="white"/>
<path d="M76.875 10C69.6377 10 63.75 15.8877 63.75 23.125C63.75 32.9883 75.645 45.5811 76.1514 46.1123C76.3398 46.3096 76.6016 46.4219 76.875 46.4219C76.8784 46.4219 76.8813 46.4219 76.8848 46.4219C77.1616 46.4189 77.4253 46.3018 77.6123 46.0977C78.1182 45.5459 90 32.4736 90 23.125C90 15.8877 84.1123 10 76.875 10ZM76.8618 43.9229C74.2715 41.0146 65.75 30.8564 65.75 23.125C65.75 16.9902 70.7407 12 76.875 12C83.0093 12 88 16.9902 88 23.125C88 30.4443 79.4385 40.9326 76.8618 43.9229Z" fill="white"/>
<path d="M76.8745 17.2305C73.9507 17.2305 71.5723 19.6094 71.5723 22.5332C71.5723 25.457 73.9507 27.835 76.8745 27.835C79.7983 27.835 82.1768 25.457 82.1768 22.5332C82.1768 19.6094 79.7983 17.2305 76.8745 17.2305ZM76.8745 25.835C75.0537 25.835 73.5723 24.3535 73.5723 22.5332C73.5723 20.7119 75.0537 19.2305 76.8745 19.2305C78.6953 19.2305 80.1768 20.7119 80.1768 22.5332C80.1768 24.3535 78.6953 25.835 76.8745 25.835Z" fill="white"/>
</svg>
